<svg width="189" height="56" viewBox="0 0 189 56" fill="none" xmlns="http://www.w3.org/2000/svg">
<path d="M173.949 0.000181999H15.0593C14.4801 0.000181999 13.9079 0.000181999 13.3302 0.00298199C12.8467 0.00578198 12.367 0.013916 11.8788 0.0207619C10.8183 0.0318244 9.7602 0.114528 8.71383 0.268155C7.66892 0.425126 6.65674 0.721062 5.71154 1.14595C4.76748 1.57444 3.90487 2.13121 3.155 2.79607C2.4012 3.45906 1.77284 4.22539 1.2941 5.06559C0.814034 5.90412 0.481156 6.80267 0.306961 7.73023C0.131109 8.65661 0.0364821 9.59368 0.0239282 10.533C0.0092712 10.9623 0.00772337 11.3929 0 11.8222V44.1821C0.00772337 44.6168 0.0092712 45.0379 0.0239282 45.4727C0.0364859 46.412 0.131113 47.349 0.306961 48.2754C0.480675 49.2035 0.813573 50.1026 1.2941 50.9414C1.77262 51.7789 2.40107 52.5421 3.155 53.2014C3.90203 53.8692 4.7652 54.4264 5.71154 54.8516C6.65674 55.2776 7.6688 55.5753 8.71383 55.7347C9.76038 55.8871 10.8183 55.9698 11.8788 55.9822C12.367 55.9917 12.8467 55.9972 13.3302 55.9972C13.9079 56 14.4801 56 15.0593 56H173.949C174.517 56 175.094 56 175.661 55.9972C176.143 55.9972 176.636 55.9917 177.117 55.9822C178.176 55.9705 179.232 55.8878 180.276 55.7347C181.325 55.5742 182.34 55.2766 183.29 54.8516C184.236 54.4261 185.098 53.869 185.844 53.2014C186.596 52.5395 187.226 51.7769 187.711 50.9414C188.187 50.1019 188.517 49.2029 188.688 48.2754C188.865 47.3489 188.962 46.4121 188.982 45.4727C188.988 45.0379 188.988 44.6168 188.988 44.1821C189 43.6735 189 43.1676 189 42.6508V13.3507C189 12.838 189 12.3294 188.988 11.8222C188.988 11.3929 188.988 10.9623 188.982 10.533C188.962 9.59354 188.865 8.65668 188.688 7.73017C188.517 6.80315 188.187 5.90467 187.711 5.06553C186.736 3.38145 185.19 2.01061 183.29 1.14583C182.34 0.721974 181.325 0.426117 180.276 0.268029C179.232 0.113726 178.176 0.0309928 177.117 0.0205659C176.636 0.013734 176.143 0.00552998 175.661 0.00279999C175.094 0 174.517 0 173.949 0V0.000181999Z" fill="#A6A6A6"/>
<path d="M13.0077 54.9972C12.5246 54.9972 12.0531 54.9917 11.5737 54.9821C10.5806 54.9706 9.58983 54.8936 8.60951 54.7518C7.69541 54.6117 6.8099 54.351 5.98218 53.9784C5.16204 53.6088 4.41401 53.1242 3.76675 52.5432C3.11011 51.9691 2.56343 51.3031 2.14838 50.5718C1.72874 49.8357 1.43833 49.0468 1.28726 48.2324C1.12412 47.3573 1.03585 46.4724 1.02322 45.5854C1.01316 45.2877 1 44.2964 1 44.2964V11.6856C1 11.6856 1.01402 10.7095 1.0233 10.4228C1.03539 9.53718 1.12314 8.6537 1.2858 7.77997C1.43715 6.96334 1.72779 6.17208 2.14765 5.4336C2.56118 4.70279 3.10482 4.03635 3.7575 3.46013C4.40945 2.87843 5.15987 2.39137 5.9814 2.01671C6.80722 1.64527 7.69106 1.38643 8.60331 1.24884C9.58685 1.10565 10.5811 1.02823 11.5776 1.01724L13.0085 1H175.984L177.432 1.01793C178.419 1.02837 179.404 1.1051 180.379 1.24746C181.3 1.38677 182.193 1.64742 183.029 2.02085C184.675 2.77589 186.014 3.97043 186.859 5.43704C187.272 6.17043 187.558 6.95523 187.707 7.76481C187.872 8.64571 187.964 9.53613 187.983 10.429C187.987 10.8288 187.987 11.2582 187.987 11.6856C188 12.215 188 12.7188 188 13.2268V42.7717C188 43.2845 188 43.785 187.987 44.2895C187.987 44.7486 187.987 45.1691 187.981 45.602C187.963 46.4789 187.872 47.3534 187.71 48.2185C187.562 49.0388 187.273 49.8339 186.854 50.576C186.436 51.2994 185.892 51.9596 185.243 52.5322C184.595 53.1164 183.846 53.6038 183.024 53.9757C182.191 54.3512 181.299 54.6128 180.379 54.7518C179.399 54.8944 178.408 54.9713 177.415 54.9821C176.95 54.9917 176.464 54.9972 175.992 54.9972L174.272 55L13.0077 54.9972Z" fill="black"/>
<path d="M46.2315 28.4219C46.2463 27.2534 46.5527 26.1077 47.1221 25.0914C47.6915 24.075 48.5055 23.2211 49.4882 22.6091C48.8639 21.7059 48.0403 20.9625 47.0828 20.4382C46.1254 19.9138 45.0604 19.6228 43.9725 19.5883C41.6518 19.3416 39.402 20.9951 38.2194 20.9951C37.0139 20.9951 35.1931 19.6128 33.2325 19.6537C31.9643 19.6952 30.7283 20.0688 29.645 20.7381C28.5617 21.4074 27.668 22.3495 27.0509 23.4727C24.3782 28.1605 26.3718 35.0499 28.9321 38.8392C30.2131 40.6946 31.7102 42.7673 33.6691 42.6938C35.586 42.6132 36.3019 41.4555 38.6158 41.4555C40.9081 41.4555 41.5798 42.6938 43.5785 42.647C45.6354 42.6132 46.9314 40.7833 48.1674 38.9103C49.0878 37.5882 49.796 36.127 50.2658 34.5808C49.0708 34.0687 48.051 33.2117 47.3336 32.1165C46.6162 31.0213 46.2329 29.7364 46.2315 28.4219Z" fill="white"/>
<path d="M42.4569 17.0963C43.5784 15.7324 44.131 13.9794 43.9972 12.2095C42.2837 12.3918 40.701 13.2214 39.5643 14.5329C39.0086 15.1736 38.5829 15.9191 38.3117 16.7265C38.0405 17.534 37.9291 18.3877 37.9837 19.2388C38.8408 19.2478 39.6886 19.0596 40.4635 18.6885C41.2383 18.3174 41.9199 17.773 42.4569 17.0963Z" fill="white"/>
<path d="M70.4618 37.9956H63.9203L62.3493 42.6946H59.5786L65.7746 25.3095H68.6533L74.8493 42.6946H72.0314L70.4618 37.9956ZM64.5978 35.8273H69.783L67.2269 28.2011H67.1553L64.5978 35.8273Z" fill="white"/>
<path d="M88.2295 36.3581C88.2295 40.297 86.1484 42.8276 83.0079 42.8276C82.2123 42.8698 81.4211 42.6841 80.7249 42.2919C80.0286 41.8997 79.4555 41.3169 79.0711 40.61H79.0116V46.8881H76.4434V30.0198H78.9294V32.128H78.9766C79.3787 31.4246 79.9615 30.8447 80.6631 30.4501C81.3646 30.0556 82.1586 29.861 82.9606 29.8872C86.1362 29.8872 88.2295 32.4302 88.2295 36.3581ZM85.5896 36.3581C85.5896 33.7919 84.2805 32.1048 82.2831 32.1048C80.3208 32.1048 79.0009 33.8275 79.0009 36.3581C79.0009 38.912 80.3208 40.6224 82.2831 40.6224C84.2805 40.6224 85.5896 38.9476 85.5896 36.3581Z" fill="white"/>
<path d="M102.001 36.3579C102.001 40.2968 99.9198 42.8274 96.7793 42.8274C95.9838 42.8696 95.1926 42.6839 94.4964 42.2917C93.8001 41.8996 93.227 41.3167 92.8426 40.6098H92.7831V46.8879H90.2148V30.0197H92.7008V32.1278H92.748C93.1501 31.4244 93.733 30.8445 94.4345 30.45C95.136 30.0554 95.9301 29.8608 96.7321 29.887C99.9077 29.887 102.001 32.43 102.001 36.3579ZM99.3611 36.3579C99.3611 33.7917 98.052 32.1046 96.0546 32.1046C94.0923 32.1046 92.7724 33.8273 92.7724 36.3579C92.7724 38.9118 94.0923 40.6222 96.0546 40.6222C98.052 40.6222 99.3611 38.9474 99.3611 36.3579H99.3611Z" fill="white"/>
<path d="M111.104 37.851C111.294 39.575 112.947 40.707 115.206 40.707C117.371 40.707 118.929 39.575 118.929 38.0205C118.929 36.671 117.989 35.8631 115.765 35.3093L113.541 34.7666C110.39 33.9955 108.927 32.5025 108.927 30.0798C108.927 27.0802 111.507 25.0199 115.171 25.0199C118.798 25.0199 121.284 27.0802 121.367 30.0798H118.775C118.62 28.3449 117.204 27.2976 115.135 27.2976C113.066 27.2976 111.65 28.3572 111.65 29.8994C111.65 31.1285 112.554 31.8517 114.766 32.4054L116.657 32.8757C120.178 33.7192 121.641 35.1521 121.641 37.695C121.641 40.9475 119.084 42.9846 115.016 42.9846C111.21 42.9846 108.641 40.9954 108.475 37.8509L111.104 37.851Z" fill="white"/>
<path d="M127.183 27.02V30.0196H129.563V32.0799H127.183V39.0676C127.183 40.1531 127.66 40.659 128.706 40.659C128.988 40.654 129.27 40.6339 129.551 40.5988V42.6468C129.08 42.7358 128.602 42.7761 128.124 42.7671C125.591 42.7671 124.603 41.8033 124.603 39.3451V32.0799H122.784V30.0196H124.603V27.02H127.183Z" fill="white"/>
<path d="M130.941 36.3576C130.941 32.3696 133.26 29.8635 136.876 29.8635C140.503 29.8635 142.811 32.3695 142.811 36.3576C142.811 40.3567 140.515 42.8518 136.876 42.8518C133.237 42.8518 130.941 40.3566 130.941 36.3576ZM140.194 36.3576C140.194 33.6219 138.957 32.0073 136.876 32.0073C134.795 32.0073 133.558 33.6342 133.558 36.3576C133.558 39.1043 134.795 40.7067 136.876 40.7067C138.957 40.7067 140.194 39.1043 140.194 36.3576H140.194Z" fill="white"/>
<path d="M144.929 30.0197H147.378V32.1771H147.438C147.603 31.5033 147.993 30.9079 148.541 30.4908C149.089 30.0738 149.762 29.8606 150.447 29.8871C150.743 29.886 151.038 29.9186 151.327 29.9842V32.4178C150.954 32.3021 150.564 32.249 150.173 32.2605C149.8 32.2452 149.428 32.3118 149.083 32.4559C148.738 32.5999 148.427 32.8179 148.173 33.095C147.919 33.372 147.727 33.7015 147.61 34.0609C147.493 34.4202 147.455 34.8009 147.497 35.1767V42.6949H144.929L144.929 30.0197Z" fill="white"/>
<path d="M163.168 38.9719C162.822 41.2728 160.61 42.8519 157.78 42.8519C154.14 42.8519 151.881 40.3814 151.881 36.418C151.881 32.4422 154.152 29.8637 157.672 29.8637C161.134 29.8637 163.311 32.2727 163.311 36.1158V37.0072H154.473V37.1645C154.433 37.6309 154.49 38.1009 154.643 38.543C154.795 38.9852 155.038 39.3895 155.357 39.7291C155.675 40.0687 156.061 40.3357 156.489 40.5125C156.917 40.6894 157.377 40.7719 157.839 40.7547C158.446 40.8123 159.055 40.6699 159.576 40.3487C160.097 40.0275 160.501 39.5446 160.729 38.9719L163.168 38.9719ZM154.486 35.1889H160.741C160.764 34.7695 160.701 34.3497 160.557 33.956C160.412 33.5623 160.188 33.2032 159.9 32.9011C159.612 32.599 159.265 32.3606 158.882 32.2007C158.499 32.0408 158.087 31.9629 157.672 31.9719C157.254 31.9694 156.839 32.0508 156.452 32.2114C156.065 32.3721 155.713 32.6087 155.417 32.9078C155.121 33.2069 154.886 33.5625 154.726 33.954C154.566 34.3455 154.485 34.7652 154.486 35.1889V35.1889Z" fill="white"/>
<path d="M64.2706 12.2237C64.809 12.1846 65.3493 12.267 65.8525 12.465C66.3557 12.663 66.8093 12.9717 67.1804 13.3687C67.5516 13.7658 67.8312 14.2414 67.999 14.7612C68.1667 15.2809 68.2185 15.832 68.1507 16.3745C68.1507 19.0432 66.7268 20.5773 64.2706 20.5773H61.292V12.2237H64.2706ZM62.5728 19.3959H64.1275C64.5122 19.4192 64.8973 19.3553 65.2546 19.2088C65.6119 19.0624 65.9324 18.837 66.1929 18.5492C66.4534 18.2615 66.6473 17.9184 66.7604 17.5452C66.8736 17.1719 66.9031 16.7778 66.8469 16.3915C66.899 16.0067 66.8665 15.6151 66.7516 15.2445C66.6368 14.874 66.4424 14.5338 66.1825 14.2483C65.9226 13.9628 65.6036 13.7391 65.2483 13.5931C64.893 13.4472 64.5103 13.3827 64.1275 13.4042H62.5728V19.3959Z" fill="white"/>
<path d="M69.5969 17.4225C69.5578 17.0082 69.6046 16.5903 69.7342 16.1954C69.8639 15.8005 70.0736 15.4374 70.35 15.1294C70.6263 14.8214 70.9631 14.5754 71.3388 14.407C71.7145 14.2386 72.1208 14.1516 72.5316 14.1516C72.9424 14.1516 73.3487 14.2386 73.7244 14.407C74.1001 14.5754 74.4369 14.8214 74.7132 15.1294C74.9895 15.4374 75.1993 15.8005 75.3289 16.1954C75.4586 16.5903 75.5054 17.0082 75.4663 17.4225C75.5062 17.8372 75.4599 18.2558 75.3306 18.6513C75.2012 19.0469 74.9916 19.4106 74.7153 19.7192C74.4389 20.0278 74.1018 20.2744 73.7257 20.4431C73.3497 20.6119 72.9429 20.699 72.5316 20.699C72.1203 20.699 71.7135 20.6119 71.3374 20.4431C70.9614 20.2744 70.6243 20.0278 70.3479 19.7192C70.0715 19.4106 69.8619 19.0469 69.7326 18.6513C69.6032 18.2558 69.557 17.8372 69.5969 17.4225ZM74.2031 17.4225C74.2031 16.056 73.5971 15.2569 72.5336 15.2569C71.4661 15.2569 70.8656 16.056 70.8656 17.4225C70.8656 18.8 71.4661 19.5929 72.5336 19.5929C73.5971 19.5929 74.2031 18.7945 74.2031 17.4225H74.2031Z" fill="white"/>
<path d="M83.2684 20.5776H81.9944L80.7082 15.9346H80.611L79.3303 20.5776H78.0684L76.353 14.2735H77.5987L78.7135 19.0839H78.8053L80.0847 14.2735H81.2629L82.5423 19.0839H82.6395L83.7488 14.2735H84.977L83.2684 20.5776Z" fill="white"/>
<path d="M86.4199 14.2738H87.6022V15.2752H87.6939C87.8496 14.9155 88.1122 14.614 88.4451 14.4127C88.778 14.2114 89.1646 14.1203 89.551 14.1521C89.8538 14.129 90.1578 14.1753 90.4406 14.2874C90.7233 14.3995 90.9776 14.5747 91.1844 14.7999C91.3913 15.025 91.5455 15.2945 91.6356 15.5882C91.7257 15.882 91.7494 16.1925 91.705 16.4968V20.5778H90.4768V16.8092C90.4768 15.7961 90.0423 15.2923 89.134 15.2923C88.9284 15.2826 88.7232 15.3181 88.5324 15.3962C88.3416 15.4744 88.1697 15.5934 88.0286 15.7452C87.8875 15.8969 87.7804 16.0778 87.7147 16.2753C87.649 16.4729 87.6263 16.6826 87.6481 16.8899V20.5778H86.4199L86.4199 14.2738Z" fill="white"/>
<path d="M93.6616 11.8125H94.8898V20.5775H93.6616V11.8125Z" fill="white"/>
<path d="M96.5978 17.4226C96.5587 17.0083 96.6056 16.5903 96.7353 16.1954C96.865 15.8005 97.0747 15.4374 97.3511 15.1294C97.6274 14.8214 97.9643 14.5754 98.34 14.407C98.7157 14.2386 99.122 14.1516 99.5329 14.1516C99.9437 14.1516 100.35 14.2386 100.726 14.407C101.101 14.5754 101.438 14.8214 101.715 15.1294C101.991 15.4374 102.201 15.8005 102.33 16.1954C102.46 16.5903 102.507 17.0083 102.468 17.4226C102.508 17.8374 102.461 18.256 102.332 18.6515C102.203 19.047 101.993 19.4108 101.717 19.7193C101.44 20.0279 101.103 20.2745 100.727 20.4432C100.351 20.6119 99.9442 20.6991 99.5329 20.6991C99.1216 20.6991 98.7148 20.6119 98.3387 20.4432C97.9626 20.2745 97.6255 20.0279 97.3491 19.7193C97.0727 19.4108 96.8631 19.047 96.7337 18.6515C96.6043 18.256 96.558 17.8374 96.5978 17.4226ZM101.204 17.4226C101.204 16.0562 100.598 15.257 99.5346 15.257C98.467 15.257 97.8665 16.0562 97.8665 17.4227C97.8665 18.8001 98.4671 19.5931 99.5346 19.5931C100.598 19.593 101.204 18.7946 101.204 17.4226H101.204Z" fill="white"/>
<path d="M103.76 18.7946C103.76 17.6598 104.594 17.0056 106.074 16.9126L107.76 16.8142V16.2701C107.76 15.6042 107.325 15.2283 106.486 15.2283C105.8 15.2283 105.325 15.4832 105.189 15.9289H104C104.126 14.8461 105.131 14.1516 106.543 14.1516C108.103 14.1516 108.983 14.9384 108.983 16.2701V20.5774H107.8V19.6914H107.703C107.506 20.0092 107.229 20.2683 106.901 20.4422C106.572 20.6161 106.204 20.6986 105.834 20.6812C105.573 20.7088 105.309 20.6805 105.059 20.5983C104.809 20.5162 104.579 20.3819 104.384 20.2041C104.188 20.0264 104.032 19.8091 103.924 19.5663C103.817 19.3235 103.761 19.0606 103.76 18.7946ZM107.76 18.2559V17.7288L106.24 17.8273C105.383 17.8854 104.995 18.1807 104.995 18.7364C104.995 19.3038 105.48 19.634 106.149 19.634C106.344 19.6541 106.542 19.634 106.73 19.5751C106.918 19.5162 107.092 19.4196 107.243 19.291C107.393 19.1624 107.516 19.0045 107.605 18.8267C107.694 18.6489 107.747 18.4547 107.76 18.2559Z" fill="white"/>
<path d="M110.596 17.4228C110.596 15.4308 111.607 14.1689 113.179 14.1689C113.568 14.1507 113.954 14.2451 114.292 14.4409C114.63 14.6368 114.906 14.926 115.087 15.2749H115.179V11.8125H116.407V20.5775H115.23V19.5815H115.133C114.937 19.928 114.652 20.2136 114.307 20.4075C113.963 20.6014 113.573 20.6961 113.179 20.6814C111.596 20.6815 110.596 19.4195 110.596 17.4228ZM111.864 17.4228C111.864 18.7599 112.487 19.5645 113.527 19.5645C114.562 19.5645 115.202 18.7483 115.202 17.4282C115.202 16.1144 114.555 15.2865 113.527 15.2865C112.493 15.2865 111.864 16.0966 111.864 17.4228H111.864Z" fill="white"/>
<path d="M121.489 17.4228C121.45 17.0086 121.497 16.5906 121.626 16.1957C121.756 15.8008 121.966 15.4377 122.242 15.1297C122.518 14.8217 122.855 14.5757 123.231 14.4073C123.607 14.2389 124.013 14.1519 124.424 14.1519C124.834 14.1519 125.241 14.2389 125.616 14.4073C125.992 14.5757 126.329 14.8217 126.605 15.1297C126.882 15.4377 127.091 15.8008 127.221 16.1957C127.351 16.5906 127.397 17.0086 127.358 17.4228C127.398 17.8375 127.352 18.2561 127.223 18.6517C127.093 19.0472 126.884 19.4109 126.607 19.7195C126.331 20.0281 125.994 20.2747 125.618 20.4434C125.242 20.6122 124.835 20.6993 124.424 20.6993C124.012 20.6993 123.606 20.6122 123.23 20.4434C122.853 20.2747 122.516 20.0281 122.24 19.7195C121.964 19.4109 121.754 19.0472 121.625 18.6517C121.495 18.2561 121.449 17.8375 121.489 17.4228ZM126.095 17.4228C126.095 16.0563 125.489 15.2572 124.426 15.2572C123.358 15.2572 122.758 16.0563 122.758 17.4228C122.758 18.8003 123.358 19.5932 124.426 19.5932C125.489 19.5932 126.095 18.7948 126.095 17.4228Z" fill="white"/>
<path d="M129.007 14.2735H130.19V15.275H130.281C130.437 14.9153 130.7 14.6138 131.032 14.4124C131.365 14.2111 131.752 14.12 132.138 14.1518C132.441 14.1288 132.745 14.175 133.028 14.2872C133.311 14.3993 133.565 14.5744 133.772 14.7996C133.979 15.0248 134.133 15.2942 134.223 15.588C134.313 15.8817 134.337 16.1923 134.292 16.4965V20.5775H133.064V16.809C133.064 15.7959 132.63 15.2921 131.721 15.2921C131.516 15.2824 131.311 15.3178 131.12 15.396C130.929 15.4741 130.757 15.5932 130.616 15.7449C130.475 15.8967 130.368 16.0775 130.302 16.2751C130.236 16.4727 130.214 16.6823 130.235 16.8896V20.5776H129.007V14.2735Z" fill="white"/>
<path d="M141.233 12.7042V14.3024H142.581V15.3503H141.233V18.5919C141.233 19.2523 141.502 19.5414 142.113 19.5414C142.269 19.5409 142.426 19.5313 142.581 19.5127V20.549C142.361 20.589 142.137 20.6103 141.913 20.6126C140.547 20.6126 140.004 20.1259 140.004 18.9105V15.3503H139.016V14.3023H140.004V12.7042H141.233Z" fill="white"/>
<path d="M144.258 11.8125H145.475V15.2865H145.572C145.736 14.9235 146.005 14.6202 146.345 14.4182C146.684 14.2161 147.077 14.125 147.47 14.1572C147.771 14.1406 148.072 14.1916 148.352 14.3064C148.631 14.4213 148.882 14.5972 149.087 14.8217C149.292 15.0462 149.445 15.3136 149.536 15.605C149.627 15.8964 149.653 16.2045 149.613 16.5074V20.5775H148.384V16.8143C148.384 15.8074 147.921 15.2974 147.053 15.2974C146.842 15.2799 146.629 15.3093 146.431 15.3836C146.232 15.4578 146.052 15.5752 145.903 15.7274C145.753 15.8797 145.639 16.0631 145.567 16.2649C145.495 16.4667 145.467 16.682 145.486 16.8957V20.5775H144.258L144.258 11.8125Z" fill="white"/>
<path d="M156.773 18.8753C156.606 19.4515 156.245 19.9499 155.752 20.2833C155.259 20.6167 154.666 20.7639 154.076 20.6991C153.666 20.7101 153.259 20.6306 152.882 20.466C152.506 20.3015 152.169 20.0559 151.896 19.7463C151.622 19.4367 151.418 19.0705 151.299 18.6732C151.179 18.2758 151.146 17.8568 151.202 17.4453C151.147 17.0324 151.181 16.6125 151.3 16.214C151.42 15.8154 151.623 15.4476 151.895 15.1353C152.167 14.823 152.502 14.5735 152.877 14.4038C153.253 14.2341 153.66 14.1482 154.071 14.1517C155.803 14.1517 156.847 15.3501 156.847 17.3297V17.7638H152.453V17.8336C152.434 18.0649 152.462 18.2978 152.537 18.5172C152.612 18.7367 152.731 18.9378 152.887 19.1079C153.043 19.2779 153.233 19.4131 153.443 19.5046C153.654 19.5962 153.881 19.6421 154.11 19.6395C154.404 19.6753 154.702 19.6217 154.965 19.4856C155.229 19.3495 155.447 19.1371 155.591 18.8753L156.773 18.8753ZM152.453 16.8437H155.596C155.612 16.6321 155.583 16.4196 155.513 16.2198C155.442 16.02 155.331 15.8373 155.187 15.6835C155.043 15.5297 154.868 15.4082 154.675 15.3267C154.482 15.2453 154.274 15.2057 154.064 15.2106C153.852 15.2079 153.641 15.2483 153.444 15.3294C153.248 15.4105 153.069 15.5307 152.919 15.6829C152.768 15.8351 152.65 16.0163 152.57 16.2156C152.49 16.415 152.45 16.6285 152.453 16.8437H152.453Z" fill="white"/>
</svg>
