<svg width="189" height="56" viewBox="0 0 189 56" fill="none" xmlns="http://www.w3.org/2000/svg">
<path d="M173.949 0.000181999H15.0593C14.4801 0.000181999 13.9079 0.000181999 13.3302 0.00298199C12.8467 0.00578198 12.367 0.013916 11.8788 0.0207619C10.8183 0.0318244 9.7602 0.114528 8.71383 0.268155C7.66892 0.425126 6.65674 0.721062 5.71154 1.14595C4.76748 1.57444 3.90487 2.13121 3.155 2.79607C2.4012 3.45906 1.77284 4.22539 1.2941 5.06559C0.814034 5.90412 0.481156 6.80267 0.306961 7.73023C0.131109 8.65661 0.0364821 9.59368 0.0239282 10.533C0.0092712 10.9623 0.00772337 11.3929 0 11.8222V44.1821C0.00772337 44.6168 0.0092712 45.0379 0.0239282 45.4727C0.0364859 46.412 0.131113 47.349 0.306961 48.2754C0.480675 49.2035 0.813573 50.1026 1.2941 50.9414C1.77262 51.7789 2.40107 52.5421 3.155 53.2014C3.90203 53.8692 4.7652 54.4264 5.71154 54.8516C6.65674 55.2776 7.6688 55.5753 8.71383 55.7347C9.76038 55.8871 10.8183 55.9698 11.8788 55.9822C12.367 55.9917 12.8467 55.9972 13.3302 55.9972C13.9079 56 14.4801 56 15.0593 56H173.949C174.517 56 175.094 56 175.661 55.9972C176.143 55.9972 176.636 55.9917 177.117 55.9822C178.176 55.9705 179.232 55.8878 180.276 55.7347C181.325 55.5742 182.34 55.2766 183.29 54.8516C184.236 54.4261 185.098 53.869 185.844 53.2014C186.596 52.5395 187.226 51.7769 187.711 50.9414C188.187 50.1019 188.517 49.2029 188.688 48.2754C188.865 47.3489 188.962 46.4121 188.982 45.4727C188.988 45.0379 188.988 44.6168 188.988 44.1821C189 43.6735 189 43.1676 189 42.6508V13.3507C189 12.838 189 12.3294 188.988 11.8222C188.988 11.3929 188.988 10.9623 188.982 10.533C188.962 9.59354 188.865 8.65668 188.688 7.73017C188.517 6.80315 188.187 5.90467 187.711 5.06553C186.736 3.38145 185.19 2.01061 183.29 1.14583C182.34 0.721974 181.325 0.426117 180.276 0.268029C179.232 0.113726 178.176 0.0309928 177.117 0.0205659C176.636 0.013734 176.143 0.00552998 175.661 0.00279999C175.094 0 174.517 0 173.949 0V0.000181999Z" fill="#A6A6A6"/>
<path d="M13.0077 54.9972C12.5246 54.9972 12.0531 54.9917 11.5737 54.9821C10.5806 54.9706 9.58983 54.8936 8.60951 54.7518C7.69541 54.6117 6.8099 54.351 5.98218 53.9784C5.16204 53.6088 4.41401 53.1242 3.76675 52.5432C3.11011 51.9691 2.56343 51.3031 2.14838 50.5718C1.72874 49.8357 1.43833 49.0468 1.28726 48.2324C1.12412 47.3573 1.03585 46.4724 1.02322 45.5854C1.01316 45.2877 1 44.2964 1 44.2964V11.6856C1 11.6856 1.01402 10.7095 1.0233 10.4228C1.03539 9.53718 1.12314 8.6537 1.2858 7.77997C1.43715 6.96334 1.72779 6.17208 2.14765 5.4336C2.56118 4.70279 3.10482 4.03635 3.7575 3.46013C4.40945 2.87843 5.15987 2.39137 5.9814 2.01671C6.80722 1.64527 7.69106 1.38643 8.60331 1.24884C9.58685 1.10565 10.5811 1.02823 11.5776 1.01724L13.0085 1H175.984L177.432 1.01793C178.419 1.02837 179.404 1.1051 180.379 1.24746C181.3 1.38677 182.193 1.64742 183.029 2.02085C184.675 2.77589 186.014 3.97043 186.859 5.43704C187.272 6.17043 187.558 6.95523 187.707 7.76481C187.872 8.64571 187.964 9.53613 187.983 10.429C187.987 10.8288 187.987 11.2582 187.987 11.6856C188 12.215 188 12.7188 188 13.2268V42.7717C188 43.2845 188 43.785 187.987 44.2895C187.987 44.7486 187.987 45.1691 187.981 45.602C187.963 46.4789 187.872 47.3534 187.71 48.2185C187.562 49.0388 187.273 49.8339 186.854 50.576C186.436 51.2994 185.892 51.9596 185.243 52.5322C184.595 53.1164 183.846 53.6038 183.024 53.9757C182.191 54.3512 181.299 54.6128 180.379 54.7518C179.399 54.8944 178.408 54.9713 177.415 54.9821C176.95 54.9917 176.464 54.9972 175.992 54.9972L174.272 55L13.0077 54.9972Z" fill="black"/>
<path d="M67.9074 14.6046C67.9074 15.717 67.5779 16.6029 66.9182 17.2637C66.1688 18.0494 65.1921 18.4426 63.9915 18.4426C62.8416 18.4426 61.864 18.0442 61.0601 17.2465C60.2547 16.4494 59.8528 15.4609 59.8528 14.2814C59.8528 13.1015 60.2547 12.1135 61.0601 11.3158C61.864 10.5186 62.8416 10.1198 63.9915 10.1198C64.562 10.1198 65.1082 10.2313 65.6268 10.4538C66.1454 10.6769 66.5614 10.973 66.8726 11.3438L66.1724 12.0445C65.645 11.4143 64.9189 11.0995 63.9915 11.0995C63.1529 11.0995 62.4278 11.3941 61.8158 11.9838C61.2038 12.5741 60.8978 13.3395 60.8978 14.2814C60.8978 15.2233 61.2038 15.9888 61.8158 16.5791C62.4278 17.1687 63.1529 17.4634 63.9915 17.4634C64.881 17.4634 65.6227 17.1671 66.2165 16.5739C66.6019 16.1874 66.8248 15.6502 66.8845 14.9603H63.9915V14.0034H67.8519C67.8892 14.2115 67.9074 14.4112 67.9074 14.6046Z" fill="white"/>
<path d="M67.9056 14.6044H67.7728C67.7718 15.6914 67.4543 16.5357 66.8226 17.1696L66.8211 17.1707L66.8206 17.1717C66.095 17.9304 65.1624 18.308 63.9897 18.3096C62.8706 18.308 61.9339 17.9263 61.1517 17.1525C60.3712 16.3771 59.9853 15.4305 59.9838 14.2812C59.9853 13.1314 60.3712 12.1854 61.1517 11.4105C61.9339 10.6362 62.8706 10.2539 63.9897 10.2523C64.5431 10.2523 65.0701 10.3603 65.5726 10.5755C66.0757 10.7923 66.4731 11.0765 66.7692 11.4292L66.8709 11.3436L66.777 11.2497L66.0768 11.9509L66.1707 12.0443L66.2729 11.9593C65.721 11.2979 64.9462 10.9645 63.9897 10.9665C63.12 10.9655 62.355 11.2762 61.7222 11.8882C61.0833 12.5023 60.7623 13.3108 60.7633 14.2812C60.7623 15.2517 61.0833 16.0601 61.7222 16.6742C62.355 17.2863 63.12 17.597 63.9897 17.5959C64.9088 17.5975 65.692 17.2858 66.3086 16.6676C66.7205 16.2546 66.9539 15.6827 67.0151 14.9715L67.0274 14.8273H64.1225V14.136H67.8501V14.0032L67.7193 14.0266C67.7557 14.2279 67.7728 14.4192 67.7728 14.6044H67.9056H68.0384C68.0384 14.4026 68.0197 14.1952 67.9808 13.9794L67.9611 13.8704H63.8569V14.9601V15.0929H66.8827V14.9601L66.7505 14.9487C66.6919 15.6168 66.4792 16.1199 66.1209 16.4798C65.5503 17.0482 64.8502 17.3288 63.9897 17.3304C63.1822 17.3293 62.4971 17.0513 61.9064 16.4834C61.3214 15.9175 61.0303 15.1951 61.0289 14.2812C61.0303 13.3673 61.3214 12.6449 61.9064 12.079C62.4971 11.5112 63.1822 11.2331 63.9897 11.2321C64.8875 11.2342 65.5655 11.5308 66.0691 12.1299L66.1624 12.2409L66.9648 11.4375L67.0508 11.3514L66.9725 11.2585C66.6463 10.8696 66.2117 10.5609 65.6774 10.3317C65.1422 10.1019 64.5774 9.9868 63.9897 9.9868C62.8094 9.98574 61.7907 10.4007 60.9645 11.2217C60.1352 12.0412 59.7172 13.0713 59.7183 14.2812C59.7172 15.4907 60.1352 16.5213 60.965 17.3413C61.7907 18.1618 62.8094 18.5762 63.9897 18.5751C65.2189 18.5762 66.2386 18.1679 67.0124 17.3552L66.9164 17.2635L67.0103 17.3573C67.6981 16.6701 68.0393 15.7417 68.0384 14.6044H67.9056Z" fill="white"/>
<path d="M74.0256 11.2771H70.3978V13.803H73.6694V14.7603H70.3978V17.2862H74.0256V18.2648H69.375V10.2984H74.0256V11.2771Z" fill="white"/>
<path d="M74.0273 11.2769V11.1441H70.2667V13.9355H73.5383V14.6269L70.2667 14.6273V17.4187H73.8946V18.1319H69.5094V10.431H73.8946V11.2769H74.0273V11.1441V11.2769H74.1601V10.2982V10.1654H69.2439V18.3974H74.1601V17.286V17.1532H70.5322V14.8928H73.8039V13.8028V13.67H70.5322V11.4097H74.1601V11.2769H74.0273Z" fill="white"/>
<path d="M78.3431 18.2648H77.3188V11.2771H75.0938V10.2984H80.5681V11.2771H78.3431V18.2648Z" fill="white"/>
<path d="M78.3419 18.2646V18.1319H77.4503V11.1441H75.2253V10.431H80.4341V11.1441H78.2091V18.2646H78.3419V18.1319V18.2646H78.4746V11.4097H80.6997V10.2982V10.1654H74.9597V11.2769V11.4097H77.1847V18.3974H78.3419H78.4746V18.2646H78.3419Z" fill="white"/>
<path d="M84.5303 18.2648V10.2984H85.5535V18.2648H84.5303Z" fill="white"/>
<path d="M84.529 18.2646H84.6618V10.431H85.4195V18.1319H84.529V18.2646H84.6618H84.529V18.3974H85.5523H85.6851V10.1654H84.529H84.3962V18.3974H84.529V18.2646Z" fill="white"/>
<path d="M90.0925 18.2648H89.0681V11.2771H86.8433V10.2984H92.3175V11.2771H90.0925V18.2648Z" fill="white"/>
<path d="M90.0925 18.2646V18.1319H89.2009V11.1441H86.976V10.431H92.1847V11.1441H89.9597V18.2646H90.0925V18.1319V18.2646H90.2252V11.4097H92.4503V10.2982V10.1654H86.7104V11.2769V11.4097H88.9353V18.3974H90.0925H90.2252V18.2646H90.0925Z" fill="white"/>
<path d="M97.5963 16.5682C98.186 17.1652 98.9075 17.4634 99.7607 17.4634C100.614 17.4634 101.336 17.1652 101.924 16.5682C102.515 15.9713 102.81 15.2082 102.81 14.2814C102.81 13.3547 102.515 12.5916 101.924 11.9947C101.336 11.3977 100.614 11.0995 99.7607 11.0995C98.9075 11.0995 98.186 11.3977 97.5963 11.9947C97.0076 12.5916 96.712 13.3547 96.712 14.2814C96.712 15.2082 97.0076 15.9713 97.5963 16.5682ZM102.682 17.2351C101.898 18.0405 100.924 18.4426 99.7607 18.4426C98.5957 18.4426 97.6222 18.0405 96.8407 17.2351C96.0569 16.4306 95.667 15.4459 95.667 14.2814C95.667 13.117 96.0569 12.1321 96.8407 11.3278C97.6222 10.5222 98.5957 10.1198 99.7607 10.1198C100.918 10.1198 101.89 10.5243 102.677 11.3329C103.462 12.1415 103.855 13.1243 103.855 14.2814C103.855 15.4459 103.463 16.4306 102.682 17.2351Z" fill="white"/>
<path d="M97.5946 16.568L97.5002 16.6613C98.1117 17.2822 98.8746 17.5975 99.7589 17.5959C100.643 17.5975 101.407 17.2822 102.017 16.6613C102.633 16.04 102.942 15.236 102.941 14.2812C102.942 13.3265 102.633 12.5225 102.017 11.9011C101.407 11.2803 100.643 10.9649 99.7589 10.9665C98.8746 10.9649 98.1117 11.2803 97.5002 11.9011C96.8861 12.5225 96.5759 13.3265 96.5775 14.2812C96.5759 15.236 96.8861 16.04 97.5002 16.6613L97.5946 16.568L97.689 16.4747C97.1258 15.9015 96.8441 15.1805 96.8431 14.2812C96.8441 13.382 97.1258 12.661 97.689 12.0878C98.2574 11.5148 98.9363 11.2337 99.7589 11.2321C100.581 11.2337 101.261 11.5148 101.828 12.0878C102.393 12.661 102.674 13.382 102.675 14.2812C102.674 15.1805 102.393 15.9015 101.828 16.4747C101.261 17.0477 100.581 17.3288 99.7589 17.3304C98.9363 17.3288 98.2574 17.0477 97.689 16.4747L97.5946 16.568ZM102.68 17.2349L102.585 17.1426C101.824 17.9227 100.893 18.308 99.7589 18.3096C98.6246 18.308 97.6936 17.9227 96.9338 17.1426L96.9302 17.1385L96.9338 17.1426C96.174 16.3599 95.7991 15.416 95.798 14.2812C95.7991 13.1464 96.174 12.2025 96.9338 11.4198C97.6936 10.6398 98.6246 10.2539 99.7589 10.2523C100.885 10.2539 101.814 10.6414 102.58 11.4255C103.342 12.2118 103.719 13.1542 103.721 14.2812C103.719 15.416 103.343 16.3599 102.585 17.1426L102.68 17.2349L102.775 17.3272C103.58 16.5005 103.987 15.4751 103.986 14.2812C103.987 13.0941 103.579 12.0708 102.77 11.2404C101.961 10.4069 100.948 9.98534 99.7589 9.9868C98.564 9.98534 97.5474 10.4049 96.7435 11.2353V11.2347C95.937 12.0619 95.5314 13.0873 95.5325 14.2812C95.5314 15.4751 95.937 16.5005 96.7435 17.3277L96.7471 17.3314L96.7435 17.3272C97.5474 18.1576 98.564 18.5762 99.7589 18.5751C100.953 18.5762 101.97 18.1576 102.775 17.3272L102.68 17.2349Z" fill="white"/>
<path d="M105.292 18.2648V10.2984H106.538L110.41 16.4958H110.454L110.41 14.9605V10.2984H111.434V18.2648H110.366L106.315 11.7672H106.271L106.315 13.3029V18.2648H105.292Z" fill="white"/>
<path d="M105.291 18.2646H105.424V10.431H106.463L110.335 16.6283H110.452H110.589L110.541 14.9583V10.431H111.3V18.1319H110.438L106.387 11.6342H106.269H106.133L106.181 13.3049V18.1319H105.291V18.2646H105.424H105.291V18.3974H106.313H106.446V13.3006L106.402 11.7634L106.269 11.7669V11.8997H106.313V11.7669L106.201 11.8376L110.29 18.3974H111.433H111.565V10.1654H110.408H110.275V14.9619L110.32 16.4991L110.452 16.4955V16.3628H110.408V16.4955L110.521 16.425L106.61 10.1654H105.291H105.158V18.3974H105.291V18.2646Z" fill="white"/>
<path d="M146.93 40.8364H149.407V24.2381H146.93V40.8364ZM169.245 30.2172L166.405 37.4134H166.32L163.372 30.2172H160.704L165.124 40.2752L162.604 45.8699H165.189L172 30.2172H169.245ZM155.195 38.9512C154.382 38.9512 153.251 38.5455 153.251 37.5415C153.251 36.2604 154.661 35.7692 155.877 35.7692C156.967 35.7692 157.478 36.0041 158.141 36.3248C157.948 37.862 156.625 38.9512 155.195 38.9512ZM155.494 29.854C153.7 29.854 151.842 30.6444 151.073 32.3955L153.272 33.3135C153.742 32.3955 154.617 32.0962 155.536 32.0962C156.817 32.0962 158.12 32.8653 158.141 34.232V34.4026C157.692 34.1463 156.732 33.7621 155.557 33.7621C153.187 33.7621 150.773 35.0643 150.773 37.4989C150.773 39.7198 152.717 41.1507 154.895 41.1507C156.561 41.1507 157.478 40.4033 158.056 39.5279H158.141V40.8089H160.532V34.4451C160.532 31.4987 158.334 29.854 155.494 29.854ZM140.182 32.2377H136.658V26.5482H140.182C142.034 26.5482 143.086 28.0818 143.086 29.3929C143.086 30.6792 142.034 32.2377 140.182 32.2377ZM140.118 24.2381H134.182V40.8364H136.658V34.5479H140.118C142.864 34.5479 145.563 32.5598 145.563 29.3929C145.563 26.2261 142.864 24.2381 140.118 24.2381ZM107.747 38.9542C106.035 38.9542 104.602 37.5212 104.602 35.553C104.602 33.564 106.035 32.1092 107.747 32.1092C109.437 32.1092 110.763 33.564 110.763 35.553C110.763 37.5212 109.437 38.9542 107.747 38.9542ZM110.592 31.1466H110.506C109.95 30.4837 108.88 29.8847 107.533 29.8847C104.709 29.8847 102.121 32.3659 102.121 35.553C102.121 38.7188 104.709 41.1787 107.533 41.1787C108.88 41.1787 109.95 40.5796 110.506 39.8956H110.592V40.7083C110.592 42.869 109.437 44.024 107.576 44.024C106.057 44.024 105.116 42.9328 104.73 42.0132L102.57 42.9115C103.191 44.4088 104.838 46.2485 107.576 46.2485C110.485 46.2485 112.945 44.537 112.945 40.366V30.227H110.592V31.1466ZM114.656 40.8364H117.137V24.2376H114.656V40.8364ZM120.795 35.3606C120.731 33.1786 122.485 32.0666 123.747 32.0666C124.731 32.0666 125.565 32.5582 125.842 33.2647L120.795 35.3606ZM128.495 33.4784C128.025 32.216 126.591 29.8847 123.661 29.8847C120.752 29.8847 118.335 32.1735 118.335 35.5317C118.335 38.6976 120.731 41.1787 123.939 41.1787C126.528 41.1787 128.025 39.5958 128.645 38.6762L126.72 37.3925C126.079 38.3339 125.201 38.9542 123.939 38.9542C122.677 38.9542 121.779 38.3765 121.201 37.2432L128.752 34.1199L128.495 33.4784ZM68.3379 31.6174V34.013H74.0704C73.8993 35.3606 73.4501 36.3444 72.7655 37.029C71.9316 37.8635 70.6267 38.7831 68.3379 38.7831C64.8084 38.7831 62.0492 35.9383 62.0492 32.4089C62.0492 28.8795 64.8084 26.0343 68.3379 26.0343C70.2418 26.0343 71.6318 26.7831 72.6587 27.7457L74.3485 26.0561C72.9154 24.6868 71.0115 23.6386 68.3379 23.6386C63.5035 23.6386 59.4395 27.5746 59.4395 32.4089C59.4395 37.2432 63.5035 41.1787 68.3379 41.1787C70.9477 41.1787 72.9155 40.3235 74.4554 38.7188C76.0383 37.1359 76.5305 34.9114 76.5305 33.1148C76.5305 32.5582 76.4879 32.0453 76.4018 31.6174H68.3379ZM83.0478 38.9542C81.3362 38.9542 79.8602 37.5424 79.8602 35.5317C79.8602 33.4996 81.3362 32.1092 83.0478 32.1092C84.7587 32.1092 86.2348 33.4996 86.2348 35.5317C86.2348 37.5424 84.7587 38.9542 83.0478 38.9542ZM83.0478 29.8847C79.9244 29.8847 77.3789 32.259 77.3789 35.5317C77.3789 38.7831 79.9244 41.1787 83.0478 41.1787C86.1705 41.1787 88.7161 38.7831 88.7161 35.5317C88.7161 32.259 86.1705 29.8847 83.0478 29.8847ZM95.4133 38.9542C93.7024 38.9542 92.2262 37.5424 92.2262 35.5317C92.2262 33.4996 93.7024 32.1092 95.4133 32.1092C97.1243 32.1092 98.6004 33.4996 98.6004 35.5317C98.6004 37.5424 97.1243 38.9542 95.4133 38.9542ZM95.4133 29.8847C92.29 29.8847 89.745 32.259 89.745 35.5317C89.745 38.7831 92.29 41.1787 95.4133 41.1787C98.5361 41.1787 101.082 38.7831 101.082 35.5317C101.082 32.259 98.5361 29.8847 95.4133 29.8847Z" fill="white"/>
<path d="M18.8987 44.0088L18.8 43.9144C18.4137 43.5056 18.1855 42.8708 18.1855 42.0488V42.2422V12.878C18.1855 12.8754 18.1855 12.8734 18.1855 12.8712C18.1855 12.8738 18.1855 12.8759 18.1855 12.8785V13.0725C18.1855 12.1824 18.4515 11.5119 18.8971 11.1099L35.3475 27.5599L18.8987 44.0088ZM18.1855 12.8696C18.1855 12.7965 18.1875 12.7255 18.1913 12.6555C18.1875 12.7249 18.1855 12.7965 18.1855 12.8696ZM18.1913 12.6523C18.1913 12.6514 18.1913 12.6503 18.1917 12.6492C18.1913 12.6503 18.1913 12.6514 18.1913 12.6523ZM18.1917 12.643C18.1917 12.6425 18.1917 12.6419 18.1917 12.6414C18.1917 12.6419 18.1917 12.6425 18.1917 12.643Z" fill="url(#paint0_linear_1942_608)"/>
<path d="M40.8308 33.2401L40.9558 33.1691L47.4523 29.4778C48.0717 29.1257 48.4845 28.6989 48.6904 28.2472C48.485 28.6989 48.0721 29.1263 47.4523 29.4784L40.9558 33.1696L40.8308 33.2401ZM40.8324 33.0456L35.3481 27.5605L40.8318 22.0762L47.4523 25.8375C48.293 26.3152 48.7651 26.9308 48.8439 27.5599C48.8439 27.5605 48.8439 27.5615 48.8439 27.5624C48.7651 28.1901 48.293 28.8063 47.4523 29.2839L40.8324 33.0456Z" fill="url(#paint1_linear_1942_608)"/>
<path d="M20.0754 44.6349C19.6159 44.6349 19.2149 44.4856 18.9023 44.2034L18.9028 44.2029C19.2155 44.485 19.617 44.6349 20.0765 44.6349C20.1163 44.6349 20.1568 44.6339 20.1979 44.6319C20.1563 44.6339 20.1153 44.6349 20.0754 44.6349ZM20.076 44.4404C19.6164 44.441 19.2155 44.2911 18.9028 44.0089V44.0085L35.3516 27.5596L40.8358 33.0447L21.5634 43.995C21.0302 44.2973 20.525 44.4404 20.076 44.4404ZM18.8981 44.1998C18.8691 44.1734 18.8405 44.1454 18.8125 44.1163L18.8981 44.1998Z" fill="url(#paint2_linear_1942_608)"/>
<path d="M35.3501 27.5599L18.8997 11.1099C19.2123 10.8283 19.6128 10.6789 20.0718 10.6789C20.522 10.6789 21.0276 10.8226 21.5619 11.1254L40.8337 22.0757L35.3501 27.5599ZM40.9578 21.9518L21.5619 10.9316C21.0276 10.6286 20.522 10.4849 20.0718 10.4849C20.0697 10.4849 20.0682 10.4849 20.0661 10.4849C20.0687 10.4849 20.0707 10.4849 20.0739 10.4849C20.5231 10.4849 21.0282 10.628 21.5619 10.931L40.9578 21.9518Z" fill="url(#paint3_linear_1942_608)"/>
<path d="M20.1952 44.6323C20.6127 44.6084 21.0749 44.4647 21.5608 44.1893L40.8316 33.2396L21.5608 44.1893C21.0753 44.4652 20.6127 44.6084 20.1952 44.6323ZM18.8996 44.2038L18.8955 44.2002C18.897 44.2013 18.8986 44.2027 18.8996 44.2038ZM18.8099 44.1167L18.8015 44.1085V44.1079C18.8047 44.111 18.8072 44.114 18.8099 44.1167Z" fill="black"/>
<path d="M40.8328 33.2401L40.9578 33.1691L40.8328 33.2401Z" fill="url(#paint4_linear_1942_608)"/>
<path d="M20.0756 44.6349C19.6161 44.6349 19.2146 44.485 18.9019 44.2029L18.9013 44.2034C18.9003 44.2024 18.8987 44.2009 18.8972 44.1998L18.8116 44.1163C18.8089 44.1137 18.8064 44.1106 18.8032 44.1076L18.9019 44.0089C19.2146 44.2911 19.6155 44.441 20.0751 44.4404C20.5241 44.4404 21.0293 44.2973 21.5625 43.995L40.8349 33.0447L40.9584 33.1682L40.8333 33.2392L21.5625 44.189C21.0766 44.4643 20.6144 44.608 20.1969 44.6319C20.1559 44.6339 20.1154 44.6349 20.0756 44.6349Z" fill="url(#paint5_linear_1942_608)"/>
<path d="M18.8032 44.1084C18.4168 43.6996 18.1887 43.0648 18.1887 42.2428V42.2423C18.1887 43.0648 18.4168 43.6991 18.8032 44.1079V44.1084Z" fill="black"/>
<path d="M18.8 44.1085C18.4137 43.6997 18.1855 43.0654 18.1855 42.2429V42.0495C18.1855 42.8715 18.4137 43.5063 18.8 43.9151L18.8987 44.0095L18.8 44.1085Z" fill="url(#paint6_linear_1942_608)"/>
<path d="M18.8032 44.1086L18.9018 44.0096V44.01L18.8032 44.1086Z" fill="url(#paint7_linear_1942_608)"/>
<path d="M48.6926 28.2468C48.7947 28.0227 48.8461 27.7925 48.8461 27.5621C48.8461 27.5617 48.8461 27.5612 48.8461 27.5612C48.8461 27.7919 48.7947 28.0222 48.6926 28.2468Z" fill="black"/>
<path d="M40.9562 33.1688L40.8328 33.0453L47.4527 29.2835C48.2935 28.806 48.7655 28.1898 48.8443 27.5621C48.8443 27.7925 48.7929 28.0227 48.6908 28.2468C48.4849 28.6985 48.0721 29.1254 47.4527 29.4775L40.9562 33.1688Z" fill="url(#paint8_linear_1942_608)"/>
<path d="M48.8447 27.5595V27.559C48.8441 26.8644 48.38 26.17 47.4531 25.6431L40.9566 21.9518H40.9561L40.9566 21.9514L47.4531 25.6425C48.381 26.1695 48.8457 26.865 48.8447 27.5595Z" fill="#404040"/>
<path d="M48.8449 27.5592C48.766 26.9301 48.294 26.3145 47.4533 25.8367L40.8328 22.0755L40.9562 21.952H40.9568L47.4533 25.6433C48.3801 26.1703 48.8443 26.8647 48.8449 27.5592Z" fill="url(#paint9_linear_1942_608)"/>
<path d="M18.1887 12.8713C18.1887 12.8707 18.1887 12.8702 18.1887 12.8697C18.1887 12.8702 18.1887 12.8707 18.1887 12.8713ZM18.1944 12.6555C18.1944 12.6545 18.1944 12.6534 18.1944 12.6523C18.1944 12.6534 18.1944 12.6545 18.1944 12.6555ZM18.1948 12.6493C18.1948 12.6472 18.1948 12.6452 18.1948 12.643C18.1948 12.6452 18.1948 12.6472 18.1948 12.6493ZM18.1948 12.6414C18.2717 11.2775 19.0134 10.4896 20.0626 10.4849C19.6077 10.4876 19.2115 10.637 18.9013 10.9164V10.9159L18.8976 10.9196C18.8649 10.9491 18.8339 10.9803 18.8032 11.0124C18.4547 11.3812 18.2348 11.9335 18.1948 12.6414Z" fill="#404040"/>
<path d="M18.1855 13.0724V12.8784C18.1855 12.8757 18.1855 12.8736 18.1855 12.8711C18.1855 12.8706 18.1855 12.87 18.1855 12.8695C18.1855 12.7964 18.1875 12.7248 18.1913 12.6553C18.1913 12.6543 18.1913 12.6532 18.1913 12.6522C18.1913 12.6512 18.1913 12.6502 18.1917 12.6491C18.1917 12.647 18.1917 12.645 18.1917 12.6429C18.1917 12.6423 18.1917 12.6418 18.1917 12.6413C18.2316 11.9333 18.4515 11.381 18.8 11.0123L18.8971 11.1097C18.4515 11.5118 18.1855 12.1823 18.1855 13.0724ZM18.8944 10.9195L18.8981 10.9157C18.8971 10.9173 18.8955 10.9184 18.8944 10.9195Z" fill="url(#paint10_linear_1942_608)"/>
<path d="M40.8344 22.0758L21.5625 11.1256C21.0282 10.8227 20.5226 10.679 20.0724 10.679C19.6134 10.679 19.213 10.8284 18.9003 11.11L18.8032 11.0126C18.8339 10.9804 18.865 10.9492 18.8976 10.9198C18.8987 10.9187 18.9003 10.9176 18.9013 10.9166C19.2115 10.6371 19.6077 10.4877 20.0626 10.4851C20.0636 10.4851 20.0651 10.4851 20.0667 10.4851C20.0688 10.4851 20.0703 10.4851 20.0724 10.4851C20.5226 10.4851 21.0282 10.6287 21.5625 10.9317L40.9584 21.9519L40.9578 21.9523L40.8344 22.0758Z" fill="url(#paint11_linear_1942_608)"/>
<defs>
<linearGradient id="paint0_linear_1942_608" x1="33.8888" y1="12.5682" x2="11.6061" y2="34.851" gradientUnits="userSpaceOnUse">
<stop stop-color="#00A0FF"/>
<stop offset="0.00657445" stop-color="#00A1FF"/>
<stop offset="0.2601" stop-color="#00BEFF"/>
<stop offset="0.5122" stop-color="#00D2FF"/>
<stop offset="0.7604" stop-color="#00DFFF"/>
<stop offset="1" stop-color="#00E3FF"/>
</linearGradient>
<linearGradient id="paint1_linear_1942_608" x1="49.8683" y1="27.5613" x2="17.741" y2="27.5613" gradientUnits="userSpaceOnUse">
<stop stop-color="#FFE000"/>
<stop offset="0.4087" stop-color="#FFBD00"/>
<stop offset="0.7754" stop-color="#FFA500"/>
<stop offset="1" stop-color="#FF9C00"/>
</linearGradient>
<linearGradient id="paint2_linear_1942_608" x1="37.9123" y1="30.6071" x2="7.69522" y2="60.8242" gradientUnits="userSpaceOnUse">
<stop stop-color="#FF3A44"/>
<stop offset="1" stop-color="#C31162"/>
</linearGradient>
<linearGradient id="paint3_linear_1942_608" x1="14.6359" y1="1.23803" x2="28.129" y2="14.7312" gradientUnits="userSpaceOnUse">
<stop stop-color="#32A071"/>
<stop offset="0.0685" stop-color="#2DA771"/>
<stop offset="0.4762" stop-color="#15CF74"/>
<stop offset="0.8009" stop-color="#06E775"/>
<stop offset="1" stop-color="#00F076"/>
</linearGradient>
<linearGradient id="paint4_linear_1942_608" x1="49.8663" y1="27.5634" x2="17.7532" y2="27.5634" gradientUnits="userSpaceOnUse">
<stop stop-color="#CCB300"/>
<stop offset="0.4087" stop-color="#CC9700"/>
<stop offset="0.7754" stop-color="#CC8400"/>
<stop offset="1" stop-color="#CC7D00"/>
</linearGradient>
<linearGradient id="paint5_linear_1942_608" x1="37.9113" y1="30.6071" x2="7.69431" y2="60.8242" gradientUnits="userSpaceOnUse">
<stop stop-color="#CC2E36"/>
<stop offset="1" stop-color="#9C0E4E"/>
</linearGradient>
<linearGradient id="paint6_linear_1942_608" x1="33.8888" y1="12.5689" x2="11.6061" y2="34.8517" gradientUnits="userSpaceOnUse">
<stop stop-color="#008DE0"/>
<stop offset="0.00657445" stop-color="#008DE0"/>
<stop offset="0.2601" stop-color="#00A7E0"/>
<stop offset="0.5122" stop-color="#00B8E0"/>
<stop offset="0.7604" stop-color="#00C4E0"/>
<stop offset="1" stop-color="#00C7E0"/>
</linearGradient>
<linearGradient id="paint7_linear_1942_608" x1="37.9039" y1="30.6143" x2="7.70041" y2="60.8195" gradientUnits="userSpaceOnUse">
<stop stop-color="#E0333C"/>
<stop offset="1" stop-color="#AB0F56"/>
</linearGradient>
<linearGradient id="paint8_linear_1942_608" x1="49.8687" y1="27.5609" x2="17.7414" y2="27.5609" gradientUnits="userSpaceOnUse">
<stop stop-color="#E0C500"/>
<stop offset="0.4087" stop-color="#E0A600"/>
<stop offset="0.7754" stop-color="#E09100"/>
<stop offset="1" stop-color="#E08900"/>
</linearGradient>
<linearGradient id="paint9_linear_1942_608" x1="49.8692" y1="27.5605" x2="17.742" y2="27.5605" gradientUnits="userSpaceOnUse">
<stop stop-color="#FFE840"/>
<stop offset="0.4087" stop-color="#FFCE40"/>
<stop offset="0.7754" stop-color="#FFBC40"/>
<stop offset="1" stop-color="#FFB540"/>
</linearGradient>
<linearGradient id="paint10_linear_1942_608" x1="33.8888" y1="12.5681" x2="11.6061" y2="34.8508" gradientUnits="userSpaceOnUse">
<stop stop-color="#40B8FF"/>
<stop offset="0.00657445" stop-color="#40B9FF"/>
<stop offset="0.2601" stop-color="#40CEFF"/>
<stop offset="0.5122" stop-color="#40DDFF"/>
<stop offset="0.7604" stop-color="#40E7FF"/>
<stop offset="1" stop-color="#40EAFF"/>
</linearGradient>
<linearGradient id="paint11_linear_1942_608" x1="14.6365" y1="1.23817" x2="28.1296" y2="14.7313" gradientUnits="userSpaceOnUse">
<stop stop-color="#65B895"/>
<stop offset="0.0685" stop-color="#62BD95"/>
<stop offset="0.4762" stop-color="#50DB97"/>
<stop offset="0.8009" stop-color="#44ED98"/>
<stop offset="1" stop-color="#40F498"/>
</linearGradient>
</defs>
</svg>
