<svg xmlns="http://www.w3.org/2000/svg">

<symbol id="logo">
  <g clip-path="url(#clip0_1905_372)">
    <path d="M1.01968 26.762H2.93157C3.4924 26.762 3.95125 26.3126 3.95125 25.7633V6.24381C3.95125 5.69453 4.41011 5.24511 4.97093 5.24511H18.9456C19.5064 5.24511 19.9653 5.69453 19.9653 6.24381V25.7633C19.9653 26.3126 20.4242 26.762 20.985 26.762H22.8969C23.4577 26.762 23.9166 26.3126 23.9166 25.7633V2.4987C23.9166 1.94941 23.4577 1.5 22.8969 1.5H1.01968C0.458855 1.5 0 1.94941 0 2.4987V25.7633C0 26.3176 0.458855 26.762 1.01968 26.762Z" fill="#2B2D42"/>
    <path d="M1.01968 27.7607H2.93157C3.4924 27.7607 3.95125 28.2101 3.95125 28.7594V35.6504C3.95125 36.1997 3.4924 36.6491 2.93157 36.6491H1.01968C0.458855 36.6491 0 36.1997 0 35.6504V28.7594C0 28.2101 0.458855 27.7607 1.01968 27.7607Z" fill="#2B2D42"/>
    <path d="M15.9481 27.7607H17.86C18.4208 27.7607 18.8797 28.2101 18.8797 28.7594V35.6504C18.8797 36.1997 18.4208 36.6491 17.86 36.6491H15.9481C15.3873 36.6491 14.9285 36.1997 14.9285 35.6504V28.7594C14.9285 28.2101 15.3873 27.7607 15.9481 27.7607Z" fill="#2B2D42"/>
    <path d="M6.05695 27.7607H7.96885C8.52967 27.7607 8.98853 28.2101 8.98853 28.7594V35.6504C8.98853 36.1997 8.52967 36.6491 7.96885 36.6491H6.05695C5.49613 36.6491 5.03728 36.1997 5.03728 35.6504V28.7594C5.03728 28.2101 5.49103 27.7607 6.05695 27.7607Z" fill="#2B2D42"/>
    <path d="M20.9854 27.7607H22.8973C23.4581 27.7607 23.917 28.2101 23.917 28.7594V35.6504C23.917 36.1997 23.4581 36.6491 22.8973 36.6491H20.9854C20.4246 36.6491 19.9657 36.1997 19.9657 35.6504V28.7594C19.9657 28.2101 20.4195 27.7607 20.9854 27.7607Z" fill="#2B2D42"/>
    <path d="M11.9554 34.0176C12.9775 34.0176 13.8061 33.2061 13.8061 32.205C13.8061 31.2039 12.9775 30.3923 11.9554 30.3923C10.9333 30.3923 10.1047 31.2039 10.1047 32.205C10.1047 33.2061 10.9333 34.0176 11.9554 34.0176Z" fill="#2B2D42"/>
    <path d="M33 35.5549V23.4386C33 22.9266 33.4291 22.5066 33.9672 22.5066H44.116C44.6473 22.5066 45.0832 22.9201 45.0832 23.4386V35.5614C45.0832 36.0734 44.6541 36.4934 44.116 36.4934H42.6925C42.1612 36.4934 41.7253 36.0799 41.7253 35.5614V25.7161C41.7253 25.5127 41.555 25.342 41.337 25.342H36.7326C36.5214 25.342 36.3443 25.5061 36.3443 25.7161V35.5614C36.3443 36.0734 35.9152 36.4934 35.3771 36.4934H33.9536C33.4291 36.4869 33 36.0734 33 35.5549ZM48.3322 35.5549V23.4386C48.3322 22.9266 48.7614 22.5066 49.2994 22.5066H54.5237C55.2185 22.5066 55.8519 22.6444 56.4241 22.9201C57.0098 23.1826 57.5139 23.5436 57.9362 24.003C58.3585 24.4494 58.6854 24.9548 58.917 25.5192C59.1486 26.0837 59.2644 26.6547 59.2644 27.2323C59.2644 28.0462 59.0669 28.8141 58.6718 29.5361C58.2904 30.2581 57.7523 30.8488 57.0575 31.3082C56.3628 31.7546 55.5522 31.9777 54.6259 31.9777H52.0716C51.8605 31.9777 51.6834 32.1418 51.6834 32.3518V35.5614C51.6834 36.0734 51.2543 36.4934 50.7162 36.4934H49.2926C48.7614 36.4869 48.3322 36.0734 48.3322 35.5549ZM51.6834 28.7879C51.6834 28.9913 51.8537 29.162 52.0716 29.162H54.4215C54.8166 29.162 55.1572 28.9979 55.4432 28.6697C55.7293 28.3415 55.8724 27.8624 55.8724 27.2323C55.8724 26.5891 55.7021 26.1165 55.3615 25.8146C55.0346 25.4995 54.6804 25.342 54.2989 25.342H52.0716C51.8605 25.342 51.6834 25.5061 51.6834 25.7161V28.7879ZM61.553 35.5549V23.4386C61.553 22.9266 61.9821 22.5066 62.5202 22.5066H63.9437C64.475 22.5066 64.9109 22.9201 64.9109 23.4386V31.2689C64.9109 31.4526 65.163 31.5248 65.2651 31.3673L70.8776 22.9398C71.0547 22.6707 71.3612 22.5131 71.6882 22.5131H73.3229C73.8542 22.5131 74.2901 22.9266 74.2901 23.4451V35.568C74.2901 36.0799 73.861 36.5 73.3229 36.5H71.8993C71.3681 36.5 70.9321 36.0865 70.9321 35.568V27.7902C70.9321 27.6064 70.6801 27.5342 70.5779 27.6917L65.0472 36.0537C64.8701 36.3228 64.5636 36.4869 64.2298 36.4869H62.5134C61.9821 36.4869 61.553 36.0734 61.553 35.5549ZM89.0093 35.5549V28.9519C89.0093 28.755 88.7369 28.696 88.6415 28.8666L86.1486 33.7039C85.9851 34.019 85.6514 34.2225 85.2836 34.2225H84.6433C84.2755 34.2225 83.9417 34.0255 83.7783 33.7039L81.2853 28.8666C81.1968 28.6894 80.9175 28.755 80.9175 28.9519V35.5549C80.9175 36.0668 80.4884 36.4869 79.9503 36.4869H78.5267C77.9955 36.4869 77.5595 36.0734 77.5595 35.5549V23.4386C77.5595 22.9266 77.9887 22.5066 78.5267 22.5066H80.5974C80.9652 22.5066 81.2989 22.71 81.4624 23.0251L84.7863 29.477C84.8544 29.6149 85.0588 29.6149 85.1337 29.477L88.4712 23.0185C88.6347 22.7035 88.9685 22.5066 89.3363 22.5066H91.3933C91.9246 22.5066 92.3605 22.9201 92.3605 23.4386V35.5614C92.3605 36.0734 91.9314 36.4934 91.3933 36.4934H89.9697C89.4384 36.4869 89.0093 36.0734 89.0093 35.5549ZM104.614 36.4869C104.083 36.4869 103.647 36.0734 103.647 35.5549V31.2689C103.524 31.3214 103.211 31.433 102.707 31.6036C102.203 31.7743 101.501 31.8596 100.602 31.8596C98.8585 31.8596 97.5439 31.492 96.6584 30.7569C95.7866 30.0087 95.3507 28.8207 95.3507 27.1929V23.4386C95.3507 22.9266 95.7798 22.5066 96.3179 22.5066H97.6597C98.191 22.5066 98.6269 22.9201 98.6269 23.4386V26.8188C98.6269 27.5408 98.8244 28.079 99.2195 28.4334C99.6145 28.7879 100.337 28.9651 101.385 28.9651C101.781 28.9651 102.176 28.9257 102.571 28.8469C102.877 28.7747 103.156 28.696 103.408 28.6041C103.558 28.5516 103.654 28.4072 103.654 28.2562V23.432C103.654 22.9201 104.083 22.5 104.621 22.5H105.963C106.494 22.5 106.93 22.9135 106.93 23.432V35.5549C106.93 36.0668 106.501 36.4869 105.963 36.4869H104.614ZM110.192 35.5549V23.4386C110.192 22.9266 110.622 22.5066 111.16 22.5066H112.583C113.115 22.5066 113.55 22.9201 113.55 23.4386V31.2689C113.55 31.4526 113.802 31.5248 113.905 31.3673L119.517 22.9398C119.694 22.6707 120.001 22.5131 120.328 22.5131H121.962C122.494 22.5131 122.93 22.9266 122.93 23.4451V35.568C122.93 36.0799 122.5 36.5 121.962 36.5H120.539C120.008 36.5 119.572 36.0865 119.572 35.568V27.7902C119.572 27.6064 119.32 27.5342 119.217 27.6917L113.687 36.0537C113.51 36.3228 113.203 36.4869 112.869 36.4869H111.153C110.622 36.4869 110.192 36.0734 110.192 35.5549ZM137.649 35.5549V28.9519C137.649 28.755 137.376 28.696 137.281 28.8666L134.788 33.7039C134.625 34.019 134.291 34.2225 133.923 34.2225H133.283C132.915 34.2225 132.581 34.0255 132.418 33.7039L129.925 28.8666C129.836 28.6894 129.557 28.755 129.557 28.9519V35.5549C129.557 36.0668 129.128 36.4869 128.59 36.4869H127.166C126.635 36.4869 126.199 36.0734 126.199 35.5549V23.4386C126.199 22.9266 126.628 22.5066 127.166 22.5066H129.237C129.605 22.5066 129.938 22.71 130.102 23.0251L133.426 29.477C133.494 29.6149 133.698 29.6149 133.773 29.477L137.111 23.0185C137.274 22.7035 137.608 22.5066 137.976 22.5066H140.033C140.564 22.5066 141 22.9201 141 23.4386V35.5614C141 36.0734 140.571 36.4934 140.033 36.4934H138.609C138.078 36.4869 137.649 36.0734 137.649 35.5549Z" fill="#2B2D42"/>
  </g>
  <defs>
    <clipPath id="clip0_1905_372">
      <rect width="141" height="36" fill="white" transform="translate(0 0.5)"/>
    </clipPath>
  </defs>
</symbol>

<symbol id="logo-white">
  <g clip-path="url(#clip0_1909_87)">
    <path d="M1.45796 36.0886H4.19164C4.99352 36.0886 5.6496 35.4466 5.6496 34.6619V6.77687C5.6496 5.99218 6.30568 5.35016 7.10756 5.35016H27.0889C27.8908 5.35016 28.5469 5.99218 28.5469 6.77687V34.6619C28.5469 35.4466 29.203 36.0886 30.0048 36.0886H32.7385C33.5404 36.0886 34.1965 35.4466 34.1965 34.6619V1.42671C34.1965 0.642019 33.5404 0 32.7385 0H1.45796C0.656082 0 0 0.642019 0 1.42671V34.6619C0 35.4537 0.656082 36.0886 1.45796 36.0886Z" fill="white"/>
    <path d="M1.45796 37.5151H4.19164C4.99351 37.5151 5.6496 38.1572 5.6496 38.9418V48.7861C5.6496 49.5708 4.99351 50.2128 4.19164 50.2128H1.45796C0.656082 50.2128 0 49.5708 0 48.7861V38.9418C0 38.1572 0.656082 37.5151 1.45796 37.5151Z" fill="white"/>
    <path d="M22.803 37.5151H25.5367C26.3386 37.5151 26.9947 38.1572 26.9947 38.9418V48.7861C26.9947 49.5708 26.3386 50.2128 25.5367 50.2128H22.803C22.0011 50.2128 21.3451 49.5708 21.3451 48.7861V38.9418C21.3451 38.1572 22.0011 37.5151 22.803 37.5151Z" fill="white"/>
    <path d="M8.66037 37.5151H11.394C12.1959 37.5151 12.852 38.1572 12.852 38.9418V48.7861C12.852 49.5708 12.1959 50.2128 11.394 50.2128H8.66037C7.85849 50.2128 7.20241 49.5708 7.20241 48.7861V38.9418C7.20241 38.1572 7.8512 37.5151 8.66037 37.5151Z" fill="white"/>
    <path d="M30.0054 37.5151H32.7391C33.541 37.5151 34.1971 38.1572 34.1971 38.9418V48.7861C34.1971 49.5708 33.541 50.2128 32.7391 50.2128H30.0054C29.2036 50.2128 28.5475 49.5708 28.5475 48.7861V38.9418C28.5475 38.1572 29.1963 37.5151 30.0054 37.5151Z" fill="white"/>
    <path d="M17.0941 46.4539C18.5555 46.4539 19.7403 45.2945 19.7403 43.8644C19.7403 42.4343 18.5555 41.2749 17.0941 41.2749C15.6326 41.2749 14.4479 42.4343 14.4479 43.8644C14.4479 45.2945 15.6326 46.4539 17.0941 46.4539Z" fill="white"/>
    <path d="M47.4129 49.2001V36.0316C47.4129 35.4752 47.8722 35.0186 48.4481 35.0186H59.3099C59.8785 35.0186 60.345 35.468 60.345 36.0316V49.2072C60.345 49.7637 59.8858 50.2202 59.3099 50.2202H57.7863C57.2177 50.2202 56.7511 49.7708 56.7511 49.2072V38.5069C56.7511 38.2858 56.5689 38.1003 56.3356 38.1003H51.4077C51.1817 38.1003 50.9922 38.2786 50.9922 38.5069V49.2072C50.9922 49.7637 50.5329 50.2202 49.957 50.2202H48.4335C47.8722 50.2131 47.4129 49.7637 47.4129 49.2001ZM63.8222 49.2001V36.0316C63.8222 35.4752 64.2815 35.0186 64.8574 35.0186H70.4487C71.1922 35.0186 71.8702 35.1684 72.4825 35.468C73.1095 35.7534 73.6489 36.1457 74.1009 36.6451C74.5528 37.1301 74.9027 37.6794 75.1506 38.2929C75.3984 38.9064 75.5224 39.527 75.5224 40.1548C75.5224 41.0393 75.311 41.874 74.8882 42.6586C74.4799 43.4433 73.904 44.0854 73.1605 44.5847C72.4169 45.0698 71.5494 45.3123 70.558 45.3123H67.8243C67.5984 45.3123 67.4088 45.4907 67.4088 45.7189V49.2072C67.4088 49.7637 66.9496 50.2202 66.3737 50.2202H64.8501C64.2815 50.2131 63.8222 49.7637 63.8222 49.2001ZM67.4088 41.8454C67.4088 42.0666 67.5911 42.252 67.8243 42.252H70.3393C70.7621 42.252 71.1266 42.0737 71.4328 41.717C71.739 41.3603 71.8921 40.8396 71.8921 40.1548C71.8921 39.4557 71.7098 38.9421 71.3453 38.6139C70.9954 38.2715 70.6163 38.1003 70.2081 38.1003H67.8243C67.5984 38.1003 67.4088 38.2786 67.4088 38.5069V41.8454ZM77.9717 49.2001V36.0316C77.9717 35.4752 78.431 35.0186 79.0069 35.0186H80.5305C81.0991 35.0186 81.5656 35.468 81.5656 36.0316V44.5419C81.5656 44.7416 81.8353 44.8201 81.9447 44.6489L87.9515 35.4894C88.141 35.1969 88.4691 35.0257 88.819 35.0257H90.5685C91.1371 35.0257 91.6037 35.4752 91.6037 36.0387V49.2144C91.6037 49.7708 91.1444 50.2273 90.5685 50.2273H89.045C88.4764 50.2273 88.0098 49.7779 88.0098 49.2144V40.7611C88.0098 40.5614 87.7401 40.4829 87.6307 40.6541L81.7114 49.7423C81.5219 50.0347 81.1938 50.2131 80.8366 50.2131H78.9996C78.431 50.2131 77.9717 49.7637 77.9717 49.2001ZM107.357 49.2001V42.0238C107.357 41.8097 107.065 41.7455 106.963 41.931L104.295 47.1884C104.12 47.5309 103.763 47.752 103.369 47.752H102.684C102.291 47.752 101.933 47.538 101.758 47.1884L99.0903 41.931C98.9955 41.7384 98.6967 41.8097 98.6967 42.0238V49.2001C98.6967 49.7565 98.2374 50.2131 97.6615 50.2131H96.1379C95.5693 50.2131 95.1028 49.7637 95.1028 49.2001V36.0316C95.1028 35.4752 95.562 35.0186 96.1379 35.0186H98.354C98.7477 35.0186 99.1049 35.2397 99.2798 35.5822L102.837 42.5944C102.91 42.7442 103.129 42.7442 103.209 42.5944L106.781 35.575C106.956 35.2326 107.313 35.0186 107.707 35.0186H109.908C110.477 35.0186 110.944 35.468 110.944 36.0316V49.2072C110.944 49.7637 110.484 50.2202 109.908 50.2202H108.385C107.816 50.2131 107.357 49.7637 107.357 49.2001ZM124.058 50.2131C123.489 50.2131 123.023 49.7637 123.023 49.2001V44.5419C122.892 44.599 122.556 44.7202 122.017 44.9057C121.477 45.0912 120.726 45.1839 119.764 45.1839C117.898 45.1839 116.491 44.7844 115.543 43.9855C114.61 43.1723 114.144 41.8811 114.144 40.112V36.0316C114.144 35.4752 114.603 35.0186 115.179 35.0186H116.615C117.184 35.0186 117.65 35.468 117.65 36.0316V39.7054C117.65 40.49 117.862 41.075 118.284 41.4602C118.707 41.8454 119.48 42.038 120.603 42.038C121.025 42.038 121.448 41.9952 121.871 41.9096C122.199 41.8312 122.498 41.7455 122.768 41.6457C122.928 41.5886 123.03 41.4317 123.03 41.2676V36.0244C123.03 35.468 123.489 35.0115 124.065 35.0115H125.501C126.07 35.0115 126.536 35.4609 126.536 36.0244V49.2001C126.536 49.7565 126.077 50.2131 125.501 50.2131H124.058ZM130.028 49.2001V36.0316C130.028 35.4752 130.487 35.0186 131.063 35.0186H132.587C133.156 35.0186 133.622 35.468 133.622 36.0316V44.5419C133.622 44.7416 133.892 44.8201 134.001 44.6489L140.008 35.4894C140.197 35.1969 140.526 35.0257 140.875 35.0257H142.625C143.194 35.0257 143.66 35.4752 143.66 36.0387V49.2144C143.66 49.7708 143.201 50.2273 142.625 50.2273H141.101C140.533 50.2273 140.066 49.7779 140.066 49.2144V40.7611C140.066 40.5614 139.797 40.4829 139.687 40.6541L133.768 49.7423C133.578 50.0347 133.25 50.2131 132.893 50.2131H131.056C130.487 50.2131 130.028 49.7637 130.028 49.2001ZM159.413 49.2001V42.0238C159.413 41.8097 159.122 41.7455 159.02 41.931L156.352 47.1884C156.177 47.5309 155.82 47.752 155.426 47.752H154.741C154.347 47.752 153.99 47.538 153.815 47.1884L151.147 41.931C151.052 41.7384 150.753 41.8097 150.753 42.0238V49.2001C150.753 49.7565 150.294 50.2131 149.718 50.2131H148.194C147.626 50.2131 147.159 49.7637 147.159 49.2001V36.0316C147.159 35.4752 147.619 35.0186 148.194 35.0186H150.411C150.804 35.0186 151.161 35.2397 151.336 35.5822L154.894 42.5944C154.967 42.7442 155.185 42.7442 155.266 42.5944L158.838 35.575C159.012 35.2326 159.37 35.0186 159.763 35.0186H161.965C162.533 35.0186 163 35.468 163 36.0316V49.2072C163 49.7637 162.541 50.2202 161.965 50.2202H160.441C159.873 50.2131 159.413 49.7637 159.413 49.2001Z" fill="white"/>
  </g>
  <defs>
    <clipPath id="clip0_1909_87">
      <rect width="163" height="50" fill="white"/>
    </clipPath>
  </defs>
</symbol>

<symbol id="phone">
  <path d="M15.5175 11.8C15.4765 11.7675 12.5 9.622 11.683 9.776C11.293 9.845 11.07 10.111 10.6225 10.6435C10.5505 10.7295 10.3775 10.9355 10.243 11.082C9.9602 10.9898 9.68433 10.8775 9.4175 10.746C8.04026 10.0755 6.9275 8.96274 6.257 7.5855C6.12543 7.31871 6.01315 7.04284 5.921 6.76C6.068 6.625 6.274 6.452 6.362 6.378C6.892 5.933 7.1585 5.71 7.2275 5.319C7.369 4.509 5.225 1.512 5.2025 1.485C5.10522 1.34604 4.97827 1.23043 4.83084 1.14655C4.6834 1.06267 4.51916 1.01261 4.35 1C3.481 1 1 4.2185 1 4.7605C1 4.792 1.0455 7.994 4.994 12.0105C9.0065 15.9545 12.208 16 12.2395 16C12.782 16 16 13.519 16 12.65C15.9875 12.4814 15.9378 12.3177 15.8543 12.1707C15.7709 12.0238 15.6558 11.8971 15.5175 11.8Z" fill="#2B2D42"/>
</symbol>

<symbol id="burger">
  <path d="M7 5.5H17" stroke="#838696" stroke-width="1.5" stroke-linecap="round" stroke-linejoin="round"/>
  <path d="M4 12.5H20" stroke="#838696" stroke-width="1.5" stroke-linecap="round" stroke-linejoin="round"/>
  <path d="M7 19.5H17" stroke="#838696" stroke-width="1.5" stroke-linecap="round" stroke-linejoin="round"/>
</symbol>

<symbol id="close">
  <rect width="22.2222" height="22.2222" transform="translate(0.888672 0.888916)" fill="white"/>
  <path d="M6.76224 6.76217L17.2379 17.2378M17.2379 6.76217L6.76224 17.2378" stroke="#838696" stroke-width="1.83333" stroke-linecap="round" stroke-linejoin="round"/>
</symbol>

<symbol id="close-modal" width="20" height="20" viewBox="0 0 20 20" fill="none">
  <path d="M5.28582 5.28595L14.7139 14.714M14.7139 5.28595L5.28582 14.714" stroke="#838696" stroke-width="1.5" stroke-linecap="round" stroke-linejoin="round"/>
</symbol>

<symbol id="benefit1">
  <g clip-path="url(#clip0_1907_601)">
    <path d="M26.2099 23.4928L22.5638 23.1555C22.5656 23.1051 22.5702 23.0543 22.5702 23.0036C22.5702 22.8979 22.5668 22.7958 22.5595 22.687L22.4663 21.3501C23.5487 20.6504 24.4519 19.7064 25.1029 18.594C25.754 17.4816 26.1348 16.2319 26.2147 14.9454L26.2202 14.8543C26.7887 14.782 27.3114 14.505 27.6904 14.0751C28.0693 13.6451 28.2785 13.0918 28.2787 12.5187C28.2767 11.9959 28.1014 11.4887 27.7801 11.0763C27.4589 10.6639 27.01 10.3697 26.5037 10.2398L26.5225 9.936C26.6222 9.78024 26.7216 9.61464 26.8209 9.43923C26.8894 9.34173 26.9232 9.224 26.9166 9.105L26.868 8.34023C26.7293 6.08235 25.7346 3.96239 24.0868 2.41262C22.4389 0.862855 20.2619 0 17.9998 0C15.7377 0 13.5607 0.862855 11.9128 2.41262C10.265 3.96239 9.27027 6.08235 9.13159 8.34023L9.08298 9.10622C9.07676 9.22391 9.11013 9.34029 9.17778 9.4368C9.27703 9.61201 9.37679 9.7774 9.47706 9.93297L9.4959 10.242C8.98958 10.3719 8.54066 10.6661 8.21945 11.0784C7.89824 11.4908 7.72289 11.9981 7.72086 12.5208C7.7212 13.0937 7.93044 13.6469 8.30939 14.0766C8.68833 14.5064 9.21098 14.7832 9.77938 14.8552L9.78485 14.9463C9.86483 16.2327 10.2457 17.4824 10.8967 18.5947C11.5478 19.7071 12.4509 20.6511 13.5333 21.3507L13.4422 22.6879C13.4322 22.8437 13.4303 22.9999 13.4367 23.1558L9.79062 23.4928C7.84561 23.6637 6.03579 24.5591 4.71992 26.0016C3.40405 27.4441 2.67819 29.3283 2.68622 31.2808V35.4708C2.68622 35.6118 2.74224 35.7471 2.84195 35.8468C2.94167 35.9465 3.07692 36.0025 3.21794 36.0025H32.7817C32.9227 36.0025 33.0579 35.9465 33.1576 35.8468C33.2574 35.7471 33.3134 35.6118 33.3134 35.4708V31.2808C33.3214 29.3285 32.5957 27.4444 31.28 26.0019C29.9643 24.5594 28.1547 23.6639 26.2099 23.4928ZM12.7312 28.8349V24.2894L13.5959 24.2095C13.8588 25.1762 14.4325 26.0295 15.2284 26.6378C16.0242 27.2462 16.9982 27.5758 17.9999 27.5758C19.0017 27.5758 19.9756 27.2462 20.7715 26.6378C21.5674 26.0295 22.1411 25.1762 22.404 24.2095L23.2684 24.2894V28.8349H12.7312ZM10.9082 28.8349V24.4572L11.6678 24.387V28.8349H10.9082ZM24.3318 24.387L25.0914 24.4572V28.8349H24.3318V24.387ZM10.3615 9.34959C12.2994 8.39401 14.2088 8.09473 17.9998 8.09473C21.7908 8.09473 23.6965 8.39584 25.638 9.35354C24.5783 11.0581 23.5482 11.3783 17.9998 11.3783C12.4514 11.3783 11.4226 11.0578 10.3615 9.34959ZM27.2153 12.5187C27.216 12.6887 27.1826 12.8572 27.1172 13.0142C27.0519 13.1712 26.9558 13.3136 26.8346 13.4329C26.6824 13.5841 26.4942 13.694 26.2877 13.7522L26.4362 11.3337C26.6672 11.4342 26.8638 11.5997 27.0022 11.8102C27.1405 12.0206 27.2146 12.2668 27.2153 12.5187ZM17.9998 1.06081C19.963 1.06401 21.8534 1.8043 23.2967 3.1351C24.74 4.46591 25.6309 6.29017 25.793 8.24665C23.7983 7.32571 21.7814 7.03129 17.9998 7.03129C14.2182 7.03129 12.1983 7.32632 10.2069 8.24665C10.3689 6.2902 11.2598 4.46593 12.703 3.13513C14.1463 1.80432 16.0366 1.06401 17.9998 1.06081ZM9.16167 13.4293C9.04119 13.3101 8.94574 13.1681 8.88094 13.0116C8.81613 12.8551 8.78328 12.6872 8.7843 12.5177C8.78496 12.2659 8.85899 12.0197 8.99735 11.8092C9.13571 11.5988 9.33239 11.4332 9.56335 11.3328L9.71163 13.751C9.50393 13.6923 9.31465 13.5815 9.16167 13.4293ZM10.8465 14.8801L10.6231 11.2428C11.9652 12.3005 13.9162 12.4418 17.9998 12.4418C22.1345 12.4418 24.0547 12.3105 25.3755 11.2632L25.1531 14.8789C25.0417 16.7005 24.2395 18.4109 22.9103 19.6614C21.581 20.9118 19.8248 21.608 17.9998 21.608C16.1748 21.608 14.4186 20.9118 13.0893 19.6614C11.76 18.4109 10.9579 16.7017 10.8465 14.8801ZM17.9998 22.673C19.1875 22.6739 20.3612 22.4162 21.4393 21.9177L21.4979 22.7587C21.5034 22.8416 21.5061 22.9216 21.5061 23.0042C21.504 23.529 21.3849 24.0467 21.1576 24.5197C20.9303 24.9928 20.6004 25.4092 20.192 25.7388C19.713 26.1229 19.1414 26.3744 18.5346 26.4681C17.9278 26.5618 17.307 26.4944 16.7344 26.2727C16.1618 26.051 15.6575 25.6827 15.272 25.2047C14.8866 24.7267 14.6335 24.1559 14.5381 23.5493C14.4955 23.2883 14.4832 23.0232 14.5014 22.7593L14.5603 21.9152C15.6382 22.4146 16.8119 22.6732 17.9998 22.673ZM3.74966 31.2808C3.74294 29.6016 4.36462 27.9805 5.49249 26.7364C6.62036 25.4922 8.17283 24.715 9.84471 24.5574V34.9391H3.74966V31.2808ZM10.9082 34.9391V29.8983H25.0914V34.9391H10.9082ZM32.2499 34.9391H26.1549V24.5574C27.8268 24.715 29.3792 25.4922 30.5071 26.7364C31.635 27.9805 32.2567 29.6016 32.2499 31.2808V34.9391Z" fill="#2B2D42"/>
  </g>
  <defs>
    <clipPath id="clip0_1907_601">
      <rect width="36" height="36" fill="white"/>
    </clipPath>
  </defs>
</symbol>

<symbol id="benefit2">
  <path d="M29.3706 4.91474L25.2253 0.225306C25.0991 0.0820245 24.9168 0 24.726 0H7.25987C7.06905 0 6.88684 0.0820245 6.76048 0.225306L2.54503 4.99448C2.54366 4.99605 2.37765 5.1646 2.37772 5.43589V31.3334C2.37772 31.7015 2.6759 32 3.04436 32H28.9415C29.31 32 29.6082 31.7015 29.6082 31.3334L29.6166 5.51138C29.6194 5.4865 29.6806 5.20098 29.3706 4.91474ZM7.56061 1.33336H24.4252L27.4623 4.76924H4.52354L7.56061 1.33336ZM28.2748 30.6666H3.71101V6.10253H28.2748V30.6666Z" fill="#2B2D42"/>
  <path d="M22.9956 12.7789C22.9956 12.4286 22.9689 12.5884 22.9116 12.1626C22.8667 11.8319 22.5848 11.5852 22.2508 11.5852H9.73517C9.40185 11.5852 9.11992 11.8313 9.0744 12.1617C9.01772 12.576 8.99042 12.4274 8.99042 12.7789C8.99042 16.7793 11.7766 20.077 15.3264 20.4476V24.3718H14.0627C13.6942 24.3718 13.396 24.6703 13.396 25.0384C13.396 25.4065 13.6942 25.705 14.0627 25.705H17.9234C18.2918 25.705 18.59 25.4065 18.59 25.0384C18.59 24.6703 18.2918 24.3718 17.9234 24.3718H16.6597V20.4476C20.2094 20.077 22.9956 16.7793 22.9956 12.7789ZM10.3237 12.7789H21.6622C21.6622 16.2917 19.1192 19.1494 15.9929 19.1494C12.8666 19.1494 10.3237 16.2916 10.3237 12.7789Z" fill="#2B2D42"/>
</symbol>

<symbol id="benefit3">
  <g clip-path="url(#clip0_1907_604)">
    <path d="M30.7283 5.27175C27.3288 1.87221 22.8084 0 18 0C13.1916 0 8.67122 1.87221 5.27168 5.27175C1.87221 8.67122 0 13.1916 0 18C0 22.8084 1.87221 27.3288 5.27168 30.7282C8.67122 34.1278 13.1916 36 18 36C22.8084 36 27.3288 34.1278 30.7283 30.7282C34.1278 27.3288 36 22.8084 36 18C36 13.1916 34.1278 8.67122 30.7283 5.27175ZM29.941 29.941C26.7517 33.1302 22.511 34.8866 18 34.8866C13.489 34.8866 9.24827 33.1302 6.05897 29.941C2.86973 26.7518 1.1134 22.511 1.1134 18C1.1134 13.489 2.86973 9.2482 6.05897 6.05897C9.24827 2.8698 13.489 1.1134 18 1.1134C22.511 1.1134 26.7517 2.8698 29.941 6.05897C33.1303 9.2482 34.8866 13.4889 34.8866 18C34.8866 22.5111 33.1303 26.7518 29.941 29.941Z" fill="#2B2D42"/>
    <path d="M17.9996 3.34021C15.9255 3.34021 13.9209 3.76546 12.0415 4.60401C10.2269 5.41365 8.61785 6.56678 7.25998 8.03041C4.73203 10.7428 3.33984 14.2836 3.33984 18C3.33984 21.7164 4.73203 25.2572 7.2592 27.9688C8.61799 29.4332 10.227 30.5864 12.0416 31.396C13.9209 32.2346 15.9256 32.6598 17.9997 32.6598C20.027 32.6598 21.9897 32.2534 23.8332 31.452C25.6174 30.6763 27.2064 29.569 28.554 28.1628C31.2014 25.4271 32.6595 21.8178 32.6595 18C32.6595 9.91654 26.0831 3.34021 17.9996 3.34021ZM27.7519 27.3905C25.1836 30.0705 21.7202 31.5464 17.9996 31.5464C16.0829 31.5464 14.2309 31.1537 12.4953 30.3793C10.8185 29.6311 9.33145 28.5654 8.07448 27.2107C5.73933 24.7049 4.45324 21.4338 4.45324 18C4.45324 14.5662 5.73933 11.2952 8.07539 8.78851C9.33145 7.43472 10.8185 6.36892 12.4953 5.62073C14.2309 4.84637 16.0829 4.45361 17.9996 4.45361C25.4692 4.45361 31.5461 10.5305 31.5461 18C31.5461 21.5274 30.1993 24.8615 27.7519 27.3905Z" fill="#2B2D42"/>
    <path d="M18.5563 5.38147H17.4429V8.72167H18.5563V5.38147Z" fill="#2B2D42"/>
    <path d="M18.5563 27.2783H17.4429V30.6185H18.5563V27.2783Z" fill="#2B2D42"/>
    <path d="M30.6181 17.4432H27.649V18.5566H30.6181V17.4432Z" fill="#2B2D42"/>
    <path d="M8.35068 17.4432H5.38159V18.5566H8.35068V17.4432Z" fill="#2B2D42"/>
    <path d="M9.11529 9.06977L8.328 9.85706L10.555 12.084L11.3423 11.2967L9.11529 9.06977Z" fill="#2B2D42"/>
    <path d="M26.5145 9.07015L24.2875 11.2971L25.0748 12.0844L27.3018 9.85744L26.5145 9.07015Z" fill="#2B2D42"/>
    <path d="M25.0735 23.9155L24.2862 24.7028L26.5132 26.9297L27.3004 26.1424L25.0735 23.9155Z" fill="#2B2D42"/>
    <path d="M10.5563 23.9157L8.32935 26.1427L9.11663 26.93L11.3436 24.703L10.5563 23.9157Z" fill="#2B2D42"/>
    <path d="M18.5564 17.3983V10.5773H17.4429V17.8594L22.8019 23.2183L23.5892 22.431L18.5564 17.3983Z" fill="#2B2D42"/>
  </g>
  <defs>
    <clipPath id="clip0_1907_604">
      <rect width="36" height="36" fill="white"/>
    </clipPath>
  </defs>
</symbol>

<symbol id="benefit4">
  <path d="M32.3478 4.80003C22.826 4.80003 18.587 0.300024 18.5217 0.240047C18.3913 0.0599767 18.1957 0 18 0C17.8043 0 17.6087 0.0599767 17.4782 0.239977C17.4782 0.239977 13.1739 4.79996 3.65215 4.79996C3.26084 4.79996 3 5.03994 3 5.39994V16.86C3 23.1 6.06524 29.04 11.1522 32.76C13.2392 34.26 15.4565 35.34 17.8043 36C17.8695 36 17.9348 36 18 36C18.0652 36 18.1305 36 18.1957 36C20.5435 35.34 22.7608 34.26 24.8478 32.76C29.9348 29.04 33 23.1 33 16.86V5.40001C33 5.04001 32.7391 4.80003 32.3478 4.80003ZM31.6956 16.8601C31.6956 22.7401 28.826 28.3201 24 31.8001C22.1087 33.1201 20.087 34.1401 18 34.7401C15.913 34.1401 13.8913 33.18 12 31.8001C7.17396 28.32 4.30437 22.74 4.30437 16.8601V5.99999C12.2609 5.81999 16.6304 2.70001 18 1.44C19.3696 2.70001 23.7391 5.81999 31.6956 5.99999V16.8601Z" fill="#2B2D42"/>
  <path fill-rule="evenodd" clip-rule="evenodd" d="M23.7626 13.2506C24.0767 13.5873 24.0795 14.1362 23.7688 14.4767L16.9021 22L12.2653 17.4843C11.9366 17.1642 11.9097 16.6161 12.205 16.26C12.5003 15.9038 13.0061 15.8746 13.3347 16.1946L16.8371 19.6055L22.6312 13.2573C22.9419 12.9169 23.4485 12.9139 23.7626 13.2506Z" fill="#2B2D42"/>
</symbol>

<symbol id="benefit5">
  <path d="M32.0625 3.37501H31.4438C31.3146 2.73922 30.9697 2.16762 30.4674 1.75705C29.9651 1.34648 29.3363 1.12219 28.6875 1.12219C28.0387 1.12219 27.4099 1.34648 26.9076 1.75705C26.4053 2.16762 26.0604 2.73922 25.9312 3.37501H25.2563C25.1271 2.73922 24.7822 2.16762 24.2799 1.75705C23.7776 1.34648 23.1488 1.12219 22.5 1.12219C21.8512 1.12219 21.2224 1.34648 20.7201 1.75705C20.2178 2.16762 19.8729 2.73922 19.7437 3.37501H19.0688C18.9396 2.73922 18.5947 2.16762 18.0924 1.75705C17.5901 1.34648 16.9613 1.12219 16.3125 1.12219C15.6637 1.12219 15.0349 1.34648 14.5326 1.75705C14.0303 2.16762 13.6854 2.73922 13.5563 3.37501H12.8812C12.7521 2.73922 12.4072 2.16762 11.9049 1.75705C11.4026 1.34648 10.7738 1.12219 10.125 1.12219C9.47624 1.12219 8.84742 1.34648 8.3451 1.75705C7.84279 2.16762 7.49785 2.73922 7.36875 3.37501H6.1875C5.44158 3.37501 4.72621 3.67133 4.19876 4.19877C3.67132 4.72622 3.375 5.44159 3.375 6.18751V28.125H1.6875C1.53832 28.125 1.39524 28.1843 1.28975 28.2898C1.18426 28.3953 1.125 28.5383 1.125 28.6875V29.8125C1.12585 30.469 1.35634 31.1045 1.77651 31.6089C2.19669 32.1134 2.78009 32.4549 3.42563 32.5744C3.54511 33.2199 3.88665 33.8033 4.39107 34.2235C4.89549 34.6437 5.531 34.8742 6.1875 34.875H32.0625C32.8084 34.875 33.5238 34.5787 34.0512 34.0513C34.5787 33.5238 34.875 32.8084 34.875 32.0625V6.18751C34.875 5.44159 34.5787 4.72622 34.0512 4.19877C33.5238 3.67133 32.8084 3.37501 32.0625 3.37501ZM28.6875 2.25001C29.0355 2.2518 29.3744 2.36076 29.6582 2.56206C29.9421 2.76336 30.157 3.04722 30.2738 3.37501H27.1012C27.218 3.04722 27.4329 2.76336 27.7168 2.56206C28.0006 2.36076 28.3395 2.2518 28.6875 2.25001ZM22.5 2.25001C22.848 2.2518 23.1869 2.36076 23.4707 2.56206C23.7546 2.76336 23.9695 3.04722 24.0863 3.37501H20.9137C21.0305 3.04722 21.2454 2.76336 21.5293 2.56206C21.8131 2.36076 22.152 2.2518 22.5 2.25001ZM16.3125 2.25001C16.6605 2.2518 16.9994 2.36076 17.2833 2.56206C17.5671 2.76336 17.782 3.04722 17.8988 3.37501H14.7262C14.843 3.04722 15.0579 2.76336 15.3417 2.56206C15.6256 2.36076 15.9645 2.2518 16.3125 2.25001ZM10.125 2.25001C10.473 2.2518 10.8119 2.36076 11.0958 2.56206C11.3796 2.76336 11.5945 3.04722 11.7113 3.37501H8.53875C8.6555 3.04722 8.87042 2.76336 9.15425 2.56206C9.43808 2.36076 9.77704 2.2518 10.125 2.25001ZM4.5 9.00001H29.25V29.8125C29.25 30.2601 29.0722 30.6893 28.7557 31.0058C28.4393 31.3222 28.0101 31.5 27.5625 31.5C27.1149 31.5 26.6857 31.3222 26.3693 31.0058C26.0528 30.6893 25.875 30.2601 25.875 29.8125V28.6875C25.875 28.5383 25.8157 28.3953 25.7102 28.2898C25.6048 28.1843 25.4617 28.125 25.3125 28.125H4.5V9.00001ZM3.9375 31.5C3.49036 31.4987 3.06191 31.3205 2.74573 31.0043C2.42955 30.6881 2.25134 30.2597 2.25 29.8125V29.25H24.75V29.8125C24.7494 30.4211 24.9469 31.0134 25.3125 31.5H3.9375ZM28.6875 33.75H6.1875C5.83865 33.7491 5.4986 33.6405 5.21371 33.4392C4.92883 33.2378 4.71299 32.9535 4.59562 32.625H27.5625C28.3084 32.625 29.0238 32.3287 29.5512 31.8013C30.0787 31.2738 30.375 30.5584 30.375 29.8125V9.00001H31.5V30.9375C31.5 31.6834 31.2037 32.3988 30.6762 32.9263C30.1488 33.4537 29.4334 33.75 28.6875 33.75ZM33.75 32.0625C33.7487 32.5097 33.5704 32.9381 33.2543 33.2543C32.9381 33.5705 32.5096 33.7487 32.0625 33.75H31.4381C31.814 33.3844 32.1127 32.9471 32.3165 32.464C32.5204 31.9809 32.6253 31.4619 32.625 30.9375V9.00001H33.75V32.0625ZM33.75 7.87501H4.5V6.18751C4.50134 5.74037 4.67955 5.31192 4.99573 4.99574C5.31191 4.67957 5.74036 4.50135 6.1875 4.50001H7.36875C7.50008 5.13446 7.84572 5.70439 8.34762 6.1141C8.84952 6.52381 9.47711 6.74835 10.125 6.75001C10.2742 6.75001 10.4173 6.69075 10.5227 6.58526C10.6282 6.47977 10.6875 6.3367 10.6875 6.18751C10.6875 6.03833 10.6282 5.89525 10.5227 5.78976C10.4173 5.68428 10.2742 5.62501 10.125 5.62501C9.77704 5.62322 9.43808 5.51426 9.15425 5.31296C8.87042 5.11167 8.6555 4.82781 8.53875 4.50001H13.5563C13.6876 5.13446 14.0332 5.70439 14.5351 6.1141C15.037 6.52381 15.6646 6.74835 16.3125 6.75001C16.4617 6.75001 16.6048 6.69075 16.7102 6.58526C16.8157 6.47977 16.875 6.3367 16.875 6.18751C16.875 6.03833 16.8157 5.89525 16.7102 5.78976C16.6048 5.68428 16.4617 5.62501 16.3125 5.62501C15.9645 5.62322 15.6256 5.51426 15.3417 5.31296C15.0579 5.11167 14.843 4.82781 14.7262 4.50001H19.7437C19.8751 5.13446 20.2207 5.70439 20.7226 6.1141C21.2245 6.52381 21.8521 6.74835 22.5 6.75001C22.6492 6.75001 22.7923 6.69075 22.8977 6.58526C23.0032 6.47977 23.0625 6.3367 23.0625 6.18751C23.0625 6.03833 23.0032 5.89525 22.8977 5.78976C22.7923 5.68428 22.6492 5.62501 22.5 5.62501C22.152 5.62322 21.8131 5.51426 21.5293 5.31296C21.2454 5.11167 21.0305 4.82781 20.9137 4.50001H25.9312C26.0626 5.13446 26.4082 5.70439 26.9101 6.1141C27.412 6.52381 28.0396 6.74835 28.6875 6.75001C28.8367 6.75001 28.9798 6.69075 29.0852 6.58526C29.1907 6.47977 29.25 6.3367 29.25 6.18751C29.25 6.03833 29.1907 5.89525 29.0852 5.78976C28.9798 5.68428 28.8367 5.62501 28.6875 5.62501C28.3395 5.62322 28.0006 5.51426 27.7168 5.31296C27.4329 5.11167 27.218 4.82781 27.1012 4.50001H32.0625C32.5096 4.50135 32.9381 4.67957 33.2543 4.99574C33.5704 5.31192 33.7487 5.74037 33.75 6.18751V7.87501Z" fill="#2B2D42"/>
  <path d="M11.25 22.5H7.3125V21.9375C7.31315 21.6756 7.37443 21.4175 7.49154 21.1833C7.60865 20.9491 7.7784 20.7451 7.9875 20.5875L10.6875 18.5625C11.071 18.2749 11.3747 17.8939 11.5696 17.4559C11.7645 17.0179 11.8442 16.5374 11.8011 16.0599C11.7581 15.5825 11.5937 15.1239 11.3236 14.7278C11.0535 14.3318 10.6866 14.0113 10.2578 13.7969C9.82899 13.5825 9.35251 13.4813 8.87358 13.5028C8.39466 13.5244 7.92919 13.668 7.52138 13.92C7.11357 14.1721 6.77696 14.5242 6.5435 14.9429C6.31005 15.3616 6.1875 15.8331 6.1875 16.3125V16.875C6.1875 17.0242 6.24676 17.1673 6.35225 17.2727C6.45774 17.3782 6.60082 17.4375 6.75 17.4375C6.89918 17.4375 7.04226 17.3782 7.14775 17.2727C7.25324 17.1673 7.3125 17.0242 7.3125 16.875V16.3125C7.3125 16.0249 7.38603 15.742 7.5261 15.4907C7.66617 15.2395 7.86814 15.0283 8.11283 14.877C8.35751 14.7258 8.6368 14.6396 8.92415 14.6267C9.2115 14.6138 9.49739 14.6745 9.75467 14.8032C10.012 14.9318 10.2321 15.1241 10.3941 15.3617C10.5562 15.5993 10.6548 15.8745 10.6807 16.161C10.7065 16.4474 10.6587 16.7358 10.5417 16.9986C10.4248 17.2614 10.2426 17.4899 10.0125 17.6625L7.3125 19.6875C6.964 19.9502 6.68108 20.2901 6.4859 20.6805C6.29072 21.0708 6.18858 21.5011 6.1875 21.9375V23.0625C6.1875 23.2117 6.24676 23.3548 6.35225 23.4602C6.45774 23.5657 6.60082 23.625 6.75 23.625H11.25C11.3992 23.625 11.5423 23.5657 11.6477 23.4602C11.7532 23.3548 11.8125 23.2117 11.8125 23.0625C11.8125 22.9133 11.7532 22.7702 11.6477 22.6648C11.5423 22.5593 11.3992 22.5 11.25 22.5Z" fill="#2B2D42"/>
  <path d="M16.875 20.8125H16.3125C16.3125 20.8125 16.3074 13.9922 16.299 13.9703C16.2815 13.8571 16.2295 13.7521 16.1503 13.6696C16.071 13.587 15.9682 13.5308 15.8558 13.5087C15.7435 13.4866 15.6271 13.4996 15.5224 13.5459C15.4177 13.5923 15.3299 13.6697 15.2708 13.7678L10.7708 21.0803C10.7183 21.1655 10.6896 21.2632 10.6875 21.3633C10.6854 21.4633 10.71 21.5622 10.7589 21.6495C10.8077 21.7369 10.879 21.8096 10.9653 21.8603C11.0516 21.9109 11.1499 21.9376 11.25 21.9375H15.1875V23.0625C15.1875 23.2117 15.2468 23.3548 15.3523 23.4603C15.4577 23.5658 15.6008 23.625 15.75 23.625C15.8992 23.625 16.0423 23.5658 16.1478 23.4603C16.2532 23.3548 16.3125 23.2117 16.3125 23.0625V21.9375H16.875C17.0242 21.9375 17.1673 21.8783 17.2728 21.7728C17.3782 21.6673 17.4375 21.5242 17.4375 21.375C17.4375 21.2258 17.3782 21.0828 17.2728 20.9773C17.1673 20.8718 17.0242 20.8125 16.875 20.8125ZM15.1875 20.8125H12.2569L15.1875 16.0498V20.8125Z" fill="#2B2D42"/>
  <path d="M27.4624 13.7419C27.4106 13.6672 27.3415 13.6062 27.2609 13.5641C27.1804 13.522 27.0909 13.5 27 13.5H23.0625C22.9133 13.5 22.7702 13.5593 22.6648 13.6648C22.5593 13.7702 22.5 13.9133 22.5 14.0625C22.5 14.2117 22.5593 14.3548 22.6648 14.4602C22.7702 14.5657 22.9133 14.625 23.0625 14.625H26.1883L23.0979 22.8651C23.072 22.9342 23.0598 23.0079 23.0623 23.0817C23.0648 23.1556 23.0818 23.2282 23.1124 23.2955C23.1429 23.3628 23.1864 23.4234 23.2404 23.4738C23.2944 23.5243 23.3578 23.5636 23.427 23.5896C23.4905 23.6127 23.5574 23.6247 23.625 23.625C23.7396 23.6251 23.8514 23.5902 23.9456 23.5249C24.0398 23.4597 24.1118 23.3672 24.1521 23.2599L27.5271 14.2599C27.559 14.1748 27.5697 14.0832 27.5585 13.9929C27.5472 13.9027 27.5142 13.8166 27.4624 13.7419Z" fill="#2B2D42"/>
  <path d="M21.5364 12.3987C21.4657 12.3775 21.3914 12.3704 21.3179 12.3779C21.2444 12.3854 21.1731 12.4073 21.1081 12.4423C21.0431 12.4774 20.9856 12.5249 20.9389 12.5822C20.8922 12.6394 20.8573 12.7053 20.8361 12.7761L17.4611 24.0261C17.4399 24.0969 17.4328 24.1711 17.4403 24.2446C17.4478 24.3181 17.4697 24.3894 17.5048 24.4544C17.5398 24.5195 17.5873 24.577 17.6446 24.6236C17.7019 24.6703 17.7678 24.7052 17.8385 24.7264C17.8909 24.7422 17.9453 24.7502 18 24.75C18.121 24.7501 18.2388 24.711 18.3359 24.6388C18.4329 24.5665 18.5041 24.4649 18.5389 24.349L21.9139 13.099C21.9351 13.0282 21.9421 12.954 21.9346 12.8805C21.9271 12.807 21.9052 12.7357 21.8702 12.6707C21.8351 12.6056 21.7876 12.5481 21.7304 12.5015C21.6731 12.4548 21.6072 12.4199 21.5364 12.3987Z" fill="#2B2D42"/>
</symbol>

<symbol id="benefit6">
  <g clip-path="url(#clip0_1907_644)">
    <path d="M17.0002 3.63647C14.1554 3.63647 11.8409 5.95093 11.8409 8.79577C11.8409 11.6406 14.1554 13.9551 17.0002 13.9551C19.8451 13.9551 22.1595 11.6406 22.1595 8.79577C22.1595 5.95093 19.8451 3.63647 17.0002 3.63647ZM17.0002 12.9039C14.735 12.9039 12.8922 11.061 12.8922 8.79577C12.8922 6.53052 14.735 4.68769 17.0002 4.68769C19.2655 4.68769 21.1083 6.53052 21.1083 8.79577C21.1083 11.061 19.2655 12.9039 17.0002 12.9039Z" fill="#2B2D42"/>
    <path d="M33.2929 32.2656L28.5141 17.4506C28.3367 16.9005 27.8291 16.531 27.2512 16.531H25.4213C25.131 16.531 24.8956 16.7663 24.8956 17.0566C24.8956 17.3468 25.131 17.5822 25.4213 17.5822H27.2512C27.3713 17.5822 27.4769 17.659 27.5137 17.7733L32.2924 32.5883C32.33 32.7045 32.2838 32.793 32.2529 32.8354C32.2221 32.8777 32.1521 32.9489 32.0299 32.9489H6.75552L7.87294 28.7623H17.1401C17.4304 28.7623 17.6657 28.527 17.6657 28.2367V26.0803C19.1481 25.8645 20.2318 24.9382 20.2318 23.7955C20.2318 23.2389 19.9722 22.7192 19.503 22.3083C20.1986 21.5587 20.9983 20.643 21.8031 19.6074C24.7882 15.7661 26.3018 12.2988 26.3018 9.30179C26.3017 4.17277 22.129 0 17 0C11.871 0 7.69829 4.17277 7.69829 9.30172C7.69829 12.2988 9.21182 15.7661 12.197 19.6073C13.0018 20.6429 13.8015 21.5586 14.4971 22.3083C14.028 22.7191 13.7683 23.2389 13.7683 23.7954C13.7683 25.0089 14.9906 25.9779 16.6145 26.1115V27.7111H7.46919C7.23112 27.7111 7.0228 27.8711 6.96138 28.1011L5.66752 32.9488H1.97008C1.84796 32.9488 1.77797 32.8777 1.74709 32.8353C1.71621 32.7929 1.67006 32.7045 1.70758 32.5883L6.48631 17.7733C6.52316 17.6589 6.62868 17.5821 6.74881 17.5821H8.56204C8.8523 17.5821 9.08764 17.3468 9.08764 17.0565C9.08764 16.7663 8.8523 16.5309 8.56204 16.5309H6.74888C6.17094 16.5309 5.6634 16.9005 5.48596 17.4506L0.707171 32.2656C0.575421 32.674 0.644749 33.1072 0.897292 33.4541C1.1499 33.801 1.5409 34 1.97002 34H32.0299C32.459 34 32.85 33.801 33.1026 33.4541C33.3553 33.1072 33.4246 32.6739 33.2929 32.2656ZM8.74943 9.30172C8.74943 4.75236 12.4507 1.05121 17 1.05121C21.5494 1.05121 25.2506 4.75236 25.2506 9.30179C25.2506 15.1469 18.6139 21.8123 17 23.3463C15.3861 21.8123 8.74943 15.1469 8.74943 9.30172ZM14.8195 23.7955C14.8195 23.5398 14.9628 23.2866 15.2223 23.0709C15.9529 23.82 16.4756 24.2988 16.6152 24.4249C16.635 24.4429 16.6469 24.4536 16.6503 24.4565C16.8495 24.6342 17.1506 24.6342 17.3498 24.4565C17.3532 24.4536 17.365 24.4429 17.3849 24.4249C17.5245 24.2988 18.0472 23.82 18.7778 23.0709C19.0373 23.2865 19.1806 23.5397 19.1806 23.7955C19.1806 24.478 18.1617 25.0767 17.0001 25.0767C15.8385 25.0767 14.8195 24.478 14.8195 23.7955Z" fill="#2B2D42"/>
  </g>
  <defs>
    <clipPath id="clip0_1907_644">
      <rect width="34" height="34" fill="white"/>
    </clipPath>
  </defs>
</symbol>

<symbol id="calendar" fill="none">
  <path d="M18 2V4M6 2V4" stroke="#2B2D42" stroke-width="1.5" stroke-linecap="round" stroke-linejoin="round"/>
  <path d="M2.5 12.2432C2.5 7.88594 2.5 5.70728 3.75212 4.35364C5.00424 3 7.01949 3 11.05 3H12.95C16.9805 3 18.9958 3 20.2479 4.35364C21.5 5.70728 21.5 7.88594 21.5 12.2432V12.7568C21.5 17.1141 21.5 19.2927 20.2479 20.6464C18.9958 22 16.9805 22 12.95 22H11.05C7.01949 22 5.00424 22 3.75212 20.6464C2.5 19.2927 2.5 17.1141 2.5 12.7568V12.2432Z" stroke="#2B2D42" stroke-width="1.5" stroke-linecap="round" stroke-linejoin="round"/>
  <path d="M3 8H21" stroke="#2B2D42" stroke-width="1.5" stroke-linecap="round" stroke-linejoin="round"/>
</symbol>

<symbol id="time" fill="none">
  <path d="M12 22C17.5228 22 22 17.5228 22 12C22 6.47715 17.5228 2 12 2C6.47715 2 2 6.47715 2 12C2 17.5228 6.47715 22 12 22Z" stroke="black" stroke-width="1.5"/>
  <path d="M12 8V12L14 14" stroke="black" stroke-width="1.5" stroke-linecap="round" stroke-linejoin="round"/>
</symbol>

<symbol id="plus" fill="none">
  <path d="M12 4V20M20 12H4" stroke="black" stroke-width="1.5" stroke-linecap="round" stroke-linejoin="round"/>
</symbol>

<symbol id="minus" fill="none">
  <path d="M20 12H4" stroke="black" stroke-width="1.5" stroke-linecap="round" stroke-linejoin="round"/>
</symbol>

<symbol id="location" fill="none">
  <path d="M11.922 4.79004C16.6963 3.16245 19.0834 2.34866 20.3674 3.63261C21.6513 4.91656 20.8375 7.30371 19.21 12.078L18.1016 15.3292C16.8517 18.9958 16.2267 20.8291 15.1964 20.9808C14.9195 21.0216 14.6328 20.9971 14.3587 20.9091C13.3395 20.5819 12.8007 18.6489 11.7231 14.783C11.4841 13.9255 11.3646 13.4967 11.0924 13.1692C11.0134 13.0742 10.9258 12.9866 10.8308 12.9076C10.5033 12.6354 10.0745 12.5159 9.21705 12.2769C5.35111 11.1993 3.41814 10.6605 3.0909 9.64127C3.00292 9.36724 2.97837 9.08053 3.01916 8.80355C3.17088 7.77332 5.00419 7.14834 8.6708 5.89838L11.922 4.79004Z" stroke="black" stroke-width="1.5"/>
</symbol>

<symbol id="visa">
  <mask id="mask0_1909_176" style="mask-type:luminance" maskUnits="userSpaceOnUse" x="0" y="0" width="54" height="18">
    <path d="M54 0.5H0V17.5H54V0.5Z" fill="white"/>
  </mask>
  <g mask="url(#mask0_1909_176)">
    <mask id="mask1_1909_176" style="mask-type:luminance" maskUnits="userSpaceOnUse" x="0" y="0" width="54" height="18">
      <path d="M54 0.5H0V17.5H54V0.5Z" fill="white"/>
    </mask>
    <g mask="url(#mask1_1909_176)">
      <mask id="mask2_1909_176" style="mask-type:luminance" maskUnits="userSpaceOnUse" x="0" y="1" width="54" height="16">
        <path d="M54 1H0V17H54V1Z" fill="white"/>
      </mask>
      <g mask="url(#mask2_1909_176)">
        <path d="M23.4415 16.7688H19.1211L21.8234 1.28027H26.1435L23.4415 16.7688Z" fill="#3251E1"/>
        <path d="M39.1036 1.65941C38.2514 1.34602 36.8998 1 35.2285 1C30.962 1 27.9575 3.10896 27.9391 6.12415C27.9037 8.34874 30.0902 9.58434 31.7256 10.3261C33.3971 11.084 33.9653 11.5788 33.9653 12.2544C33.9482 13.292 32.6146 13.7703 31.3707 13.7703C29.6458 13.7703 28.7216 13.5237 27.317 12.9464L26.7481 12.6989L26.1436 16.1758C27.1569 16.6037 29.0237 16.9835 30.962 17.0001C35.4952 17.0001 38.4465 14.9238 38.4815 11.7106C38.4988 9.94744 37.3442 8.59643 34.855 7.49246C33.3439 6.78377 32.4185 6.30592 32.4185 5.58081C32.4362 4.92162 33.2012 4.24645 34.907 4.24645C36.3115 4.21338 37.3435 4.52633 38.1252 4.8395L38.516 5.00397L39.1036 1.65941Z" fill="#3251E1"/>
        <path d="M44.8445 11.2818C45.2003 10.392 46.5694 6.9482 46.5694 6.9482C46.5515 6.98127 46.9245 6.04198 47.1379 5.46535L47.4398 6.79993C47.4398 6.79993 48.2579 10.5074 48.4356 11.2818C47.7604 11.2818 45.6979 11.2818 44.8445 11.2818ZM50.1775 1.28027H46.8357C45.8051 1.28027 45.0222 1.56016 44.5776 2.56536L38.1602 16.7686H42.6934C42.6934 16.7686 43.4398 14.8569 43.6002 14.4452C44.0975 14.4452 48.5074 14.4452 49.1472 14.4452C49.2712 14.989 49.6627 16.7686 49.6627 16.7686H53.663L50.1775 1.28027Z" fill="#3251E1"/>
        <path d="M15.5124 1.28027L11.2813 11.842L10.8189 9.69992C10.0367 7.2283 7.58343 4.54293 4.8457 3.20769L8.72123 16.7524H13.2899L20.0809 1.28027H15.5124Z" fill="#3251E1"/>
        <path d="M7.35229 1.28027H0.401191L0.330078 1.59322C5.75237 2.87853 9.34345 5.97672 10.8189 9.70058L9.30778 2.58222C9.059 1.593 8.29448 1.3129 7.35229 1.28027Z" fill="#FAA61A"/>
      </g>
    </g>
  </g>
</symbol>

<symbol id="mastercard">
  <mask id="mask0_1909_200" style="mask-type:luminance" maskUnits="userSpaceOnUse" x="0" y="1" width="34" height="20">
    <path d="M34 1H0V21H34V1Z" fill="white"/>
  </mask>
  <g mask="url(#mask0_1909_200)">
    <path d="M21.5412 18.8634H12.792V3.13965H21.5412V18.8634Z" fill="#FF5F00"/>
    <path d="M13.3525 11C13.3525 7.81035 14.8459 4.9691 17.1716 3.13809C15.4709 1.79916 13.3245 1 10.9919 1C5.46961 1 0.993164 5.47708 0.993164 11C0.993164 16.5229 5.46961 21 10.9919 21C13.3245 21 15.4709 20.2008 17.1716 18.8619C14.8459 17.0309 13.3525 14.1896 13.3525 11Z" fill="#EB001B"/>
    <path d="M33.3411 11C33.3411 16.5229 28.8647 21 23.3424 21C21.0098 21 18.8634 20.2008 17.1621 18.8619C19.4884 17.0309 20.9818 14.1896 20.9818 11C20.9818 7.81035 19.4884 4.9691 17.1621 3.13809C18.8634 1.79916 21.0098 1 23.3424 1C28.8647 1 33.3411 5.47708 33.3411 11Z" fill="#F79E1B"/>
    <path d="M8.51755 11.0628C8.51755 10.626 8.80379 10.2671 9.27153 10.2671C9.71845 10.2671 10.0202 10.6105 10.0202 11.0628C10.0202 11.515 9.71845 11.8584 9.27153 11.8584C8.80379 11.8584 8.51755 11.4995 8.51755 11.0628ZM10.5296 11.0628V9.82024H9.98921V10.1219C9.81783 9.89819 9.55777 9.75774 9.20429 9.75774C8.50744 9.75774 7.96114 10.304 7.96114 11.0628C7.96114 11.8221 8.50744 12.3678 9.20429 12.3678C9.55777 12.3678 9.81783 12.2273 9.98921 12.0036V12.3053H10.5296V11.0628ZM28.7893 11.0628C28.7893 10.626 29.0756 10.2671 29.5433 10.2671C29.9908 10.2671 30.292 10.6105 30.292 11.0628C30.292 11.515 29.9908 11.8584 29.5433 11.8584C29.0756 11.8584 28.7893 11.4995 28.7893 11.0628ZM30.8019 11.0628V8.82227H30.261V10.1219C30.0896 9.89819 29.8296 9.75774 29.4761 9.75774C28.7792 9.75774 28.2329 10.304 28.2329 11.0628C28.2329 11.8221 28.7792 12.3678 29.4761 12.3678C29.8296 12.3678 30.0896 12.2273 30.261 12.0036V12.3053H30.8019V11.0628ZM17.2368 10.2416C17.585 10.2416 17.8087 10.46 17.8658 10.8444H16.5763C16.634 10.4855 16.8518 10.2416 17.2368 10.2416ZM17.2475 9.75774C16.5192 9.75774 16.0098 10.288 16.0098 11.0628C16.0098 11.853 16.54 12.3678 17.2838 12.3678C17.6582 12.3678 18.0009 12.2744 18.3026 12.0197L18.0378 11.6192C17.8295 11.7852 17.5641 11.8792 17.3148 11.8792C16.9667 11.8792 16.6495 11.7179 16.5715 11.2704H18.4169C18.4223 11.2032 18.4276 11.1354 18.4276 11.0628C18.4223 10.288 17.9438 9.75774 17.2475 9.75774ZM23.7721 11.0628C23.7721 10.626 24.0584 10.2671 24.5261 10.2671C24.973 10.2671 25.2747 10.6105 25.2747 11.0628C25.2747 11.515 24.973 11.8584 24.5261 11.8584C24.0584 11.8584 23.7721 11.4995 23.7721 11.0628ZM25.7841 11.0628V9.82024H25.2438V10.1219C25.0718 9.89819 24.8124 9.75774 24.4589 9.75774C23.762 9.75774 23.2157 10.304 23.2157 11.0628C23.2157 11.8221 23.762 12.3678 24.4589 12.3678C24.8124 12.3678 25.0718 12.2273 25.2438 12.0036V12.3053H25.7841V11.0628ZM20.7205 11.0628C20.7205 11.8167 21.2454 12.3678 22.0464 12.3678C22.4207 12.3678 22.67 12.2845 22.9402 12.0714L22.6807 11.6346C22.4778 11.7804 22.2648 11.8584 22.0303 11.8584C21.5989 11.853 21.2817 11.5412 21.2817 11.0628C21.2817 10.5843 21.5989 10.2725 22.0303 10.2671C22.2648 10.2671 22.4778 10.3451 22.6807 10.4909L22.9402 10.0541C22.67 9.84106 22.4207 9.75774 22.0464 9.75774C21.2454 9.75774 20.7205 10.3088 20.7205 11.0628ZM27.6872 9.75774C27.3754 9.75774 27.1725 9.90354 27.032 10.1219V9.82024H26.4965V12.3053H27.0374V10.9122C27.0374 10.501 27.2141 10.2725 27.5676 10.2725C27.6771 10.2725 27.7914 10.288 27.9056 10.335L28.0723 9.82559C27.9527 9.77858 27.7967 9.75774 27.6872 9.75774ZM13.2021 10.0178C12.9421 9.84642 12.5838 9.75774 12.1887 9.75774C11.5591 9.75774 11.1538 10.0595 11.1538 10.5534C11.1538 10.9586 11.4555 11.2085 12.0113 11.2865L12.2666 11.3228C12.563 11.3645 12.7028 11.4424 12.7028 11.5829C12.7028 11.7751 12.5053 11.8846 12.1363 11.8846C11.762 11.8846 11.4918 11.765 11.3097 11.6245L11.055 12.0452C11.3514 12.2636 11.7257 12.3678 12.1309 12.3678C12.8486 12.3678 13.2646 12.0298 13.2646 11.5567C13.2646 11.1199 12.9373 10.8914 12.3964 10.8134L12.1417 10.7765C11.9078 10.7456 11.7203 10.6992 11.7203 10.5326C11.7203 10.3505 11.8971 10.2416 12.1934 10.2416C12.5106 10.2416 12.8177 10.3612 12.9682 10.4546L13.2021 10.0178ZM20.1742 9.75774C19.8624 9.75774 19.6595 9.90354 19.5196 10.1219V9.82024H18.984V12.3053H19.5244V10.9122C19.5244 10.501 19.7011 10.2725 20.0546 10.2725C20.1641 10.2725 20.2783 10.288 20.3926 10.335L20.5592 9.82559C20.4396 9.77858 20.2837 9.75774 20.1742 9.75774ZM15.5628 9.82024H14.6791V9.06626H14.1328V9.82024H13.6288V10.3142H14.1328V11.4478C14.1328 12.0244 14.3566 12.3678 14.9957 12.3678C15.2302 12.3678 15.5004 12.2952 15.6717 12.1756L15.5158 11.7126C15.3546 11.806 15.1778 11.853 15.0374 11.853C14.7672 11.853 14.6791 11.6864 14.6791 11.4371V10.3142H15.5628V9.82024ZM7.48328 12.3053V10.7456C7.48328 10.1582 7.10897 9.7631 6.50555 9.75774C6.18836 9.75239 5.86106 9.85117 5.63195 10.1999C5.46057 9.92437 5.1904 9.75774 4.81073 9.75774C4.54532 9.75774 4.28586 9.83571 4.08293 10.1267V9.82024H3.54199V12.3053H4.08769V10.9277C4.08769 10.4963 4.32692 10.2671 4.69647 10.2671C5.05531 10.2671 5.23681 10.501 5.23681 10.9223V12.3053H5.78311V10.9277C5.78311 10.4963 6.03245 10.2671 6.39129 10.2671C6.76025 10.2671 6.93699 10.501 6.93699 10.9223V12.3053H7.48328Z" fill="white"/>
  </g>
</symbol>

<symbol id="sber">
  <mask id="mask0_1909_213" style="mask-type:luminance" maskUnits="userSpaceOnUse" x="0" y="1" width="75" height="20">
    <path d="M75 1H0V21H75V1Z" fill="white"/>
  </mask>
  <g mask="url(#mask0_1909_213)">
    <path d="M6.8927 1.78108C8.79745 1.00066 10.9567 0.778783 12.9771 1.2455C14.1338 1.50564 15.2443 1.9647 16.2314 2.6074C16.5244 2.79868 16.8329 2.98995 17.0874 3.24244C16.7095 3.56379 16.2777 3.80862 15.8844 4.10702C15.6376 4.27534 15.4062 4.49722 15.1132 4.60434C14.9513 4.55843 14.8125 4.46662 14.6659 4.39011C13.2162 3.52553 11.4656 3.22714 9.79224 3.42607C8.2268 3.60204 6.73076 4.29064 5.56632 5.33885C4.18595 6.50947 3.31455 8.22331 3.0832 10.006C2.97524 11.0848 3.0138 12.1866 3.3531 13.2272C3.67699 14.2983 4.24764 15.2853 5.01109 16.1116C6.08299 17.3664 7.60988 18.208 9.23701 18.5141C11.0261 18.8737 12.9386 18.5753 14.5271 17.6724C16.3856 16.6013 17.8277 14.7727 18.2904 12.6763C18.4369 12.1254 18.46 11.5516 18.4986 10.9854C18.4986 10.7099 18.7762 10.5875 18.9613 10.4345C19.5473 10.0366 20.0717 9.56226 20.6809 9.18735C21.2824 12.0795 20.3879 15.2011 18.4523 17.42C16.7095 19.547 14.0182 20.84 11.2729 20.9701C8.94397 21.1078 6.59195 20.3733 4.73347 18.9884C3.85435 18.361 3.14489 17.55 2.51254 16.6855C1.47149 15.1858 0.808294 13.4184 0.723467 11.5898C0.569236 9.87595 0.947101 8.13915 1.70283 6.59363C2.7516 4.43601 4.64864 2.69921 6.8927 1.78108Z" fill="#21A038"/>
    <path d="M29.3876 6.0186C30.5906 5.16933 32.0712 4.75617 33.5441 4.79442C34.9322 4.77912 36.3125 5.23054 37.4153 6.06451C37.5387 6.15632 37.6543 6.26344 37.7546 6.38585C37.3999 6.7225 36.968 6.95969 36.5747 7.25808C36.3511 7.4111 36.1429 7.61768 35.8653 7.68654C35.5337 7.56412 35.2483 7.35754 34.9167 7.24278C34.0993 6.94438 33.1816 6.91378 32.3411 7.12036C30.9839 7.44936 29.858 8.58172 29.5495 9.93597C29.3644 10.747 29.3876 11.6116 29.6575 12.392C30.097 13.6697 31.2692 14.6643 32.611 14.8939C33.6366 15.0622 34.724 14.9245 35.6493 14.4425C35.873 14.3353 36.0889 14.1976 36.328 14.1364C36.6287 14.2206 36.8523 14.4731 37.1068 14.649C37.4076 14.8939 37.7469 15.0928 38.0245 15.3682C37.7854 15.6896 37.4538 15.9191 37.1222 16.141C36.0349 16.8832 34.7085 17.2504 33.3899 17.2122C32.0018 17.2275 30.6137 16.8143 29.4724 16.0186C28.2308 15.177 27.3903 13.8151 27.0664 12.3614C26.8582 11.3285 26.8582 10.242 27.1358 9.22442C27.4905 7.94668 28.2771 6.76841 29.3876 6.0186Z" fill="#21A038"/>
    <path d="M17.9049 5.4988C18.1748 5.30752 18.4293 5.07799 18.73 4.93262C19.0231 5.20041 19.2158 5.54471 19.4318 5.86605C19.6323 6.1874 19.8559 6.50875 19.987 6.86835C19.7557 7.13614 19.4472 7.31976 19.1619 7.52634C16.6633 9.35496 14.1571 11.1836 11.6585 13.0122C11.3886 13.2035 11.1419 13.433 10.8488 13.5784C10.71 13.5478 10.5789 13.4713 10.4555 13.4024C9.561 12.8286 8.65874 12.27 7.76421 11.7115C7.51744 11.5508 7.23211 11.4208 7.0239 11.2065C6.94678 10.8928 6.99305 10.5638 6.98534 10.2425C7.00076 9.62275 6.95449 8.99536 7.00847 8.37562C7.24753 8.47508 7.46346 8.6128 7.67938 8.74287C8.47367 9.25549 9.28338 9.74516 10.0854 10.2501C10.3244 10.3955 10.5404 10.5638 10.8026 10.6709C11.0956 10.5715 11.3192 10.3496 11.566 10.1736C13.679 8.5975 15.7919 7.05197 17.9049 5.4988Z" fill="#21A038"/>
    <path d="M40.2067 4.98593C41.402 4.94768 42.5973 4.98594 43.8003 4.97063C46.0906 4.97828 48.3887 4.95533 50.679 4.97828C49.9696 5.60567 49.1521 6.09535 48.4118 6.69213C48.1959 6.86046 47.9491 7.02113 47.6638 7.00583C46.2217 6.99818 44.7797 7.00583 43.3376 6.99818C43.1911 6.99818 43.0446 7.00583 42.8981 7.02878C42.8518 7.45724 42.8903 7.8857 42.8826 8.32182C42.8903 8.77323 42.8595 9.22465 42.8981 9.67606C43.8157 9.72197 44.7334 9.67606 45.6511 9.69137C46.831 9.66841 48.0879 9.75257 49.1213 10.38C49.7845 10.7702 50.2318 11.4511 50.386 12.1856C50.6019 13.1726 50.5248 14.2667 50.0004 15.1542C49.5531 15.9194 48.7666 16.432 47.926 16.6998C47.1703 16.9446 46.3605 17.0211 45.5663 17.0211C44.1242 17.0211 42.6898 17.0211 41.2478 17.0211C40.9008 17.0211 40.546 17.0441 40.199 17.0058C40.1527 16.6386 40.1836 16.2637 40.1759 15.8888C40.1759 12.6217 40.1759 9.36237 40.1759 6.09535C40.1836 5.72044 40.1527 5.35319 40.2067 4.98593ZM42.8903 11.6959C42.8441 12.1703 42.8826 12.6523 42.8749 13.1267C42.8903 13.7311 42.8441 14.3432 42.8903 14.9553C43.5458 15.0165 44.2167 14.963 44.8722 14.9783C45.7051 14.9706 46.615 15.0471 47.363 14.6034C48.2653 14.0831 48.2576 12.5682 47.3553 12.0479C46.6536 11.6424 45.813 11.6806 45.0264 11.6806C44.317 11.6959 43.5998 11.65 42.8903 11.6959Z" fill="#21A038"/>
    <path d="M52.9927 4.97866C54.0415 4.94041 55.0902 4.97866 56.1313 4.96336C58.1363 4.96336 60.1413 4.95571 62.1463 4.96336C61.5062 5.49894 60.7968 5.95801 60.1336 6.46298C59.8405 6.65426 59.586 6.95265 59.2159 6.98325C58.653 7.00621 58.0823 6.9756 57.5194 6.99091C56.887 7.00621 56.2547 6.945 55.63 7.02151C55.5838 7.49588 55.63 7.9779 55.6146 8.45992C55.6223 8.93429 55.5838 9.40866 55.63 9.89068C55.9231 9.93658 56.2238 9.91363 56.5169 9.91363C57.7738 9.90598 59.0385 9.91363 60.2955 9.90598C60.5963 9.90598 60.897 9.89068 61.19 9.92893C61.2209 10.5793 61.2209 11.2373 61.19 11.8953C60.9741 11.9412 60.7505 11.9335 60.5269 11.9335C59.0308 11.9182 57.5425 11.9412 56.0465 11.9182C55.9076 11.9182 55.7688 11.9182 55.63 11.9412C55.5761 12.4385 55.6223 12.9358 55.6146 13.4255C55.6223 13.9305 55.5838 14.4354 55.63 14.9404C55.792 14.971 55.9616 14.971 56.1313 14.9787C57.8047 14.971 59.4781 14.9787 61.1438 14.971C61.4754 14.971 61.807 14.9481 62.1308 14.9863C62.1848 15.652 62.1848 16.3253 62.1308 16.9909C61.7761 17.0292 61.4214 17.0062 61.0667 17.0062C58.9074 17.0062 56.7482 17.0062 54.589 17.0062C54.0569 16.9909 53.5171 17.0368 52.985 16.9909C52.9233 16.593 52.9618 16.1952 52.9541 15.7973C52.9541 12.5839 52.9541 9.3704 52.9541 6.15693C52.9618 5.77438 52.931 5.37652 52.9927 4.97866Z" fill="#21A038"/>
    <path d="M64.5821 4.986C64.9292 4.94775 65.2762 4.9707 65.6155 4.9707C66.9496 4.9707 68.2914 4.9707 69.6332 4.9707C70.8362 4.986 72.1009 5.22319 73.0957 5.94239C73.89 6.50858 74.4298 7.40375 74.5917 8.36014C74.8153 9.59962 74.6071 10.9768 73.782 11.9714C73.1034 12.7977 72.0855 13.2798 71.0521 13.471C69.7951 13.7159 68.515 13.5552 67.2426 13.6241C67.1424 14.7411 67.258 15.8735 67.1963 16.9982C66.7722 17.0518 66.3481 17.0135 65.9317 17.0212C65.4844 17.0135 65.0294 17.0518 64.5821 17.0059C64.5436 15.8429 64.5821 14.6799 64.5667 13.5246C64.5667 11.0533 64.5667 8.57436 64.5667 6.10307C64.5667 5.7205 64.5359 5.35326 64.5821 4.986ZM67.2349 7.0212C67.1809 7.37315 67.2118 7.72509 67.2041 8.08469C67.2041 9.02578 67.2118 9.97451 67.1963 10.9156C67.1963 11.1375 67.1963 11.3593 67.2349 11.5736C67.9289 11.6195 68.6153 11.5736 69.3093 11.5889C70.0573 11.6042 70.8825 11.5047 71.4531 10.9768C72.0469 10.4336 72.1626 9.56137 72.0546 8.80391C71.9775 8.19947 71.6305 7.61799 71.0753 7.3349C70.3735 6.94469 69.5407 7.0059 68.7695 7.0059C68.2605 7.0059 67.7439 6.95999 67.2349 7.0212Z" fill="#21A038"/>
  </g>
</symbol>

<symbol id="checkbox" width="20" height="20" viewBox="0 0 20 20" fill="none">
  <rect width="20" height="20" rx="4" fill="#F8F32B"/>
  <path d="M6 10.5L8.5 13L14 7" stroke="#2B2D42" stroke-width="1.5" stroke-linecap="round" stroke-linejoin="round"/>
</symbol>

<symbol id="wa" width="19" height="19" viewBox="0 0 19 19" fill="none">
  <g clip-path="url(#clip0_2083_1236)">
    <path d="M9.77165 0H9.76704C4.67742 0 0.538574 4.14 0.538574 9.23077C0.538574 11.25 1.18934 13.1215 2.29588 14.6412L1.1455 18.0704L4.69357 16.9362C6.15319 17.9031 7.89434 18.4615 9.77165 18.4615C14.8613 18.4615 19.0001 14.3204 19.0001 9.23077C19.0001 4.14115 14.8613 0 9.77165 0ZM15.1428 13.035C14.9201 13.6638 14.0363 14.1854 13.3313 14.3377C12.849 14.4404 12.219 14.5223 10.0982 13.6431C7.3855 12.5192 5.63857 9.76269 5.50242 9.58385C5.37204 9.405 4.40627 8.12423 4.40627 6.79962C4.40627 5.475 5.07896 4.83 5.35011 4.55308C5.5728 4.32577 5.94088 4.22192 6.29396 4.22192C6.40819 4.22192 6.51088 4.22769 6.60319 4.23231C6.87434 4.24385 7.0105 4.26 7.18934 4.68808C7.41204 5.22462 7.95434 6.54923 8.01896 6.68538C8.08473 6.82154 8.1505 7.00615 8.05819 7.185C7.97165 7.36962 7.8955 7.45154 7.75934 7.60846C7.62319 7.76538 7.49396 7.88538 7.3578 8.05385C7.23319 8.20038 7.09242 8.35731 7.24934 8.62846C7.40627 8.89385 7.94857 9.77885 8.74704 10.4896C9.77742 11.4069 10.6128 11.7 10.9117 11.8246C11.1343 11.9169 11.3997 11.895 11.5624 11.7219C11.769 11.4992 12.024 11.13 12.2836 10.7665C12.4682 10.5058 12.7013 10.4735 12.9459 10.5658C13.1951 10.6523 14.514 11.3042 14.7851 11.4392C15.0563 11.5754 15.2351 11.64 15.3009 11.7542C15.3655 11.8685 15.3655 12.405 15.1428 13.035Z" fill="white"/>
  </g>
  <defs>
    <clipPath id="clip0_2083_1236">
      <rect width="18.4615" height="18.4615" fill="white" transform="translate(0.538574)"/>
    </clipPath>
  </defs>
</symbol>

<symbol id="tg" width="19" height="20" viewBox="0 0 19 20" fill="none">
  <g clip-path="url(#clip0_2083_1263)">
    <path d="M0.406764 9.88961L4.65295 11.3282L14.735 5.17915C14.8814 5.09035 15.0311 5.28835 14.9051 5.40412L7.27253 12.4129L6.98902 16.3366C6.98438 16.4024 6.99989 16.4679 7.03348 16.5247C7.06706 16.5814 7.11714 16.6266 7.17708 16.6543C7.23701 16.682 7.30396 16.6908 7.36906 16.6797C7.43415 16.6685 7.4943 16.6379 7.54155 16.5919L9.89146 14.2863L14.1878 17.5305C14.6506 17.8805 15.3212 17.6338 15.4458 17.0681L18.4372 3.51757C18.608 2.74466 17.8484 2.09213 17.108 2.37498L0.385665 8.76347C-0.139174 8.96409 -0.124669 9.70937 0.406764 9.88961Z" fill="white"/>
  </g>
  <defs>
    <clipPath id="clip0_2083_1263">
      <rect width="18.4615" height="18.4615" fill="white" transform="translate(0 0.769234)"/>
    </clipPath>
  </defs>
</symbol>

<symbol id="camera" width="24" height="24" viewBox="0 0 24 24" fill="none">
  <path d="M21.1304 5.73912H18.6261L17.2435 3.65217C16.7217 2.86956 15.8087 2.39999 14.8696 2.39999H9.13043C8.1913 2.39999 7.27826 2.86956 6.75652 3.65217L5.37391 5.73912H2.86957C1.27826 5.73912 0 7.01739 0 8.60869V18.7304C0 20.3217 1.27826 21.6 2.86957 21.6H21.1304C22.7217 21.6 24 20.3217 24 18.7304V8.60869C24 7.01739 22.7217 5.73912 21.1304 5.73912ZM12 19.2522C8.42609 19.2522 5.53043 16.3565 5.53043 12.7826C5.53043 9.20869 8.42609 6.33912 12 6.33912C15.5739 6.33912 18.4696 9.23478 18.4696 12.8087C18.4696 16.3565 15.5739 19.2522 12 19.2522Z" fill="#838696"/>
  <path d="M11.9999 9.20868C10.0173 9.20868 8.3999 10.8261 8.3999 12.8087C8.3999 14.7913 10.0173 16.3826 11.9999 16.3826C13.9825 16.3826 15.5999 14.7652 15.5999 12.7826C15.5999 10.8 13.9825 9.20868 11.9999 9.20868Z" fill="#838696"/>
</symbol>

<symbol id="send"  width="28" height="28" viewBox="0 0 28 28" fill="none">
  <path d="M7.17309 14.0001L23.3333 14.0001L3.5 4.66669L7.17309 14.0001Z" fill="#838696"/>
  <path d="M23.3333 14.0001L7.17309 14.0001L3.5 23.3334L23.3333 14.0001Z" fill="#838696"/>
  <path d="M23.3333 14.0001L7.17309 14.0001M23.3333 14.0001L3.5 23.3334L7.17309 14.0001M23.3333 14.0001L3.5 4.66669L7.17309 14.0001" stroke="#838696" stroke-width="2" stroke-linecap="round" stroke-linejoin="round"/>
</symbol>

<symbol id="chat-icon" width="36" height="36" viewBox="0 0 36 36" fill="none">
  <path d="M18.0013 1.26566C8.76607 1.26566 1.26688 8.76501 1.26688 18.0011C1.27246 20.9567 2.07553 23.8493 3.5635 26.3988L1.2952 33.2037C1.14982 33.6399 1.56508 34.0549 2.00118 33.9097L8.50972 31.7405C11.2993 33.6717 14.6019 34.7293 18.0002 34.7344C27.2359 34.7342 34.7346 27.2355 34.7345 18C34.7345 8.76434 27.2364 1.26587 18.0013 1.26566ZM12.409 16.3266C13.3265 16.3266 14.0824 17.0825 14.0824 18C14.0824 18.9178 13.3265 19.6735 12.409 19.6735C11.4914 19.6735 10.7366 18.9178 10.7366 18C10.7366 17.0825 11.4914 16.3266 12.409 16.3266ZM18.0013 16.3266C18.9188 16.3266 19.6747 17.0825 19.6747 18C19.6747 18.9178 18.9188 19.6735 18.0013 19.6735C17.0837 19.6735 16.3278 18.9178 16.3278 18C16.3278 17.0825 17.0837 16.3266 18.0013 16.3266ZM23.5652 16.3266C24.4828 16.3266 25.2387 17.0825 25.2387 18C25.2386 18.9178 24.4828 19.6735 23.5652 19.6735C22.6476 19.6735 21.8918 18.9178 21.8918 18C21.8918 17.0825 22.6476 16.3266 23.5652 16.3266Z" fill="#2B2D42"/>
</symbol>

<symbol id="option-call" width="24" height="24" viewBox="0 0 24 24" fill="none">
  <path d="M19.4396 13C19.2196 13 18.9896 12.93 18.7696 12.88C18.3241 12.7818 17.8863 12.6515 17.4596 12.49C16.9957 12.3212 16.4858 12.33 16.0279 12.5146C15.5701 12.6992 15.1967 13.0466 14.9796 13.49L14.7596 13.94C13.7856 13.3982 12.8906 12.7252 12.0996 11.94C11.3144 11.149 10.6414 10.254 10.0996 9.28L10.5196 9.00001C10.963 8.78292 11.3104 8.40954 11.495 7.9517C11.6796 7.49386 11.6884 6.98392 11.5196 6.52001C11.3608 6.09243 11.2305 5.6548 11.1296 5.21001C11.0796 4.99001 11.0396 4.76001 11.0096 4.53001C10.8882 3.82563 10.5192 3.18775 9.96923 2.73124C9.41923 2.27474 8.72431 2.02961 8.00961 2.04001H5.00961C4.57864 2.03596 4.15186 2.12482 3.75832 2.30054C3.36478 2.47625 3.01372 2.7347 2.72904 3.05829C2.44436 3.38187 2.23275 3.763 2.1086 4.17572C1.98445 4.58844 1.95069 5.02306 2.00961 5.45001C2.54235 9.63939 4.45564 13.5319 7.44726 16.5126C10.4389 19.4934 14.3383 21.3925 18.5296 21.91H18.9096C19.647 21.9111 20.359 21.6405 20.9096 21.15C21.226 20.867 21.4787 20.5202 21.6511 20.1323C21.8235 19.7445 21.9116 19.3244 21.9096 18.9V15.9C21.8974 15.2054 21.6444 14.5366 21.194 14.0077C20.7435 13.4788 20.1234 13.1226 19.4396 13ZM19.9396 19C19.9394 19.142 19.909 19.2823 19.8504 19.4116C19.7918 19.5409 19.7063 19.6563 19.5996 19.75C19.4882 19.847 19.3576 19.9194 19.2163 19.9625C19.075 20.0056 18.9262 20.0184 18.7796 20C15.0345 19.5198 11.5558 17.8065 8.89233 15.1303C6.22881 12.4541 4.53202 8.96734 4.06961 5.22001C4.0537 5.07352 4.06765 4.92534 4.11061 4.7844C4.15358 4.64346 4.22468 4.51269 4.31961 4.40001C4.41332 4.29334 4.52867 4.20785 4.65799 4.14922C4.78731 4.0906 4.92763 4.06019 5.06961 4.06001H8.06961C8.30216 4.05483 8.52924 4.13088 8.71176 4.27508C8.89428 4.41927 9.02082 4.62258 9.06961 4.85001C9.10961 5.12334 9.15961 5.39334 9.21961 5.66001C9.33513 6.18715 9.48887 6.70518 9.67961 7.21001L8.27961 7.86001C8.15991 7.91493 8.05223 7.99295 7.96277 8.0896C7.87331 8.18625 7.80381 8.29962 7.75828 8.4232C7.71275 8.54678 7.69208 8.67814 7.69746 8.80973C7.70284 8.94132 7.73415 9.07055 7.78961 9.19C9.22881 12.2728 11.7069 14.7508 14.7896 16.19C15.0331 16.29 15.3062 16.29 15.5496 16.19C15.6743 16.1454 15.7889 16.0765 15.8868 15.9872C15.9846 15.8979 16.0638 15.7901 16.1196 15.67L16.7396 14.27C17.2566 14.4549 17.7842 14.6085 18.3196 14.73C18.5863 14.79 18.8563 14.84 19.1296 14.88C19.357 14.9288 19.5604 15.0553 19.7045 15.2379C19.8487 15.4204 19.9248 15.6475 19.9196 15.88L19.9396 19Z" fill="#838696"/>
</symbol>

<symbol id="option-copy" width="24" height="24" viewBox="0 0 24 24" fill="none">
  <path d="M21 8.94C20.9896 8.84813 20.9695 8.75763 20.94 8.67V8.58C20.8919 8.47718 20.8278 8.38267 20.75 8.3L14.75 2.3C14.6673 2.22222 14.5728 2.15808 14.47 2.11C14.4402 2.10576 14.4099 2.10576 14.38 2.11C14.2784 2.05174 14.1662 2.01434 14.05 2H10C9.20435 2 8.44129 2.31607 7.87868 2.87868C7.31607 3.44129 7 4.20435 7 5V6H6C5.20435 6 4.44129 6.31607 3.87868 6.87868C3.31607 7.44129 3 8.20435 3 9V19C3 19.7956 3.31607 20.5587 3.87868 21.1213C4.44129 21.6839 5.20435 22 6 22H14C14.7956 22 15.5587 21.6839 16.1213 21.1213C16.6839 20.5587 17 19.7956 17 19V18H18C18.7956 18 19.5587 17.6839 20.1213 17.1213C20.6839 16.5587 21 15.7956 21 15V9C21 9 21 9 21 8.94ZM15 5.41L17.59 8H16C15.7348 8 15.4804 7.89464 15.2929 7.70711C15.1054 7.51957 15 7.26522 15 7V5.41ZM15 19C15 19.2652 14.8946 19.5196 14.7071 19.7071C14.5196 19.8946 14.2652 20 14 20H6C5.73478 20 5.48043 19.8946 5.29289 19.7071C5.10536 19.5196 5 19.2652 5 19V9C5 8.73478 5.10536 8.48043 5.29289 8.29289C5.48043 8.10536 5.73478 8 6 8H7V15C7 15.7956 7.31607 16.5587 7.87868 17.1213C8.44129 17.6839 9.20435 18 10 18H15V19ZM19 15C19 15.2652 18.8946 15.5196 18.7071 15.7071C18.5196 15.8946 18.2652 16 18 16H10C9.73478 16 9.48043 15.8946 9.29289 15.7071C9.10536 15.5196 9 15.2652 9 15V5C9 4.73478 9.10536 4.48043 9.29289 4.29289C9.48043 4.10536 9.73478 4 10 4H13V7C13 7.79565 13.3161 8.55871 13.8787 9.12132C14.4413 9.68393 15.2044 10 16 10H19V15Z" fill="#838696"/>
</symbol>

<symbol id="star-yellow" width="48" height="46" viewBox="0 0 48 46" fill="none">
  <path d="M23.1254 0.577395C23.5062 -0.109408 24.4938 -0.109409 24.8746 0.577395L31.95 13.3389C32.0933 13.5973 32.3436 13.7792 32.6337 13.8356L46.957 16.6212C47.7279 16.7712 48.0331 17.7104 47.4975 18.2848L37.5471 28.9574C37.3456 29.1736 37.25 29.4678 37.286 29.7611L39.0628 44.2442C39.1584 45.0237 38.3595 45.6042 37.6477 45.2724L24.4225 39.107C24.1547 38.9821 23.8453 38.9821 23.5775 39.107L10.3523 45.2724C9.64054 45.6042 8.84158 45.0237 8.93721 44.2442L10.714 29.7611C10.75 29.4678 10.6544 29.1736 10.4529 28.9574L0.502466 18.2848C-0.0330516 17.7104 0.27212 16.7712 1.04298 16.6212L15.3663 13.8356C15.6564 13.7792 15.9067 13.5973 16.05 13.3389L23.1254 0.577395Z" fill="url(#paint0_linear_1963_1138)"/>
  <defs>
    <linearGradient id="paint0_linear_1963_1138" x1="17" y1="7" x2="39.5" y2="51" gradientUnits="userSpaceOnUse">
      <stop stop-color="#F8F32B"/>
      <stop offset="1" stop-color="#F8B22B"/>
    </linearGradient>
  </defs>
</symbol>

<symbol id="star" width="48" height="46" viewBox="0 0 48 46" fill="none">
  <path d="M23.1254 0.577395C23.5062 -0.109408 24.4938 -0.109409 24.8746 0.577395L31.95 13.3389C32.0933 13.5973 32.3436 13.7792 32.6337 13.8356L46.957 16.6212C47.7279 16.7712 48.0331 17.7104 47.4975 18.2848L37.5471 28.9574C37.3456 29.1736 37.25 29.4678 37.286 29.7611L39.0628 44.2442C39.1584 45.0237 38.3595 45.6042 37.6477 45.2724L24.4225 39.107C24.1547 38.9821 23.8453 38.9821 23.5775 39.107L10.3523 45.2724C9.64054 45.6042 8.84158 45.0237 8.93721 44.2442L10.714 29.7611C10.75 29.4678 10.6544 29.1736 10.4529 28.9574L0.502466 18.2848C-0.0330516 17.7104 0.27212 16.7712 1.04298 16.6212L15.3663 13.8356C15.6564 13.7792 15.9067 13.5973 16.05 13.3389L23.1254 0.577395Z" fill="#E9E9EE"/>
</symbol>

</svg>